<?xml version="1.0" standalone="no"?>
<!DOCTYPE svg PUBLIC "-//W3C//DTD SVG 20010904//EN"
 "http://www.w3.org/TR/2001/REC-SVG-20010904/DTD/svg10.dtd">
<svg version="1.0" xmlns="http://www.w3.org/2000/svg"
 width="1001.000000pt" height="1000.000000pt" viewBox="0 0 1001.000000 1000.000000"
 preserveAspectRatio="xMidYMid meet">

<g transform="translate(0.000000,1000.000000) scale(0.100000,-0.100000)"
fill="#000000" stroke="none">
<path d="M0 5000 l0 -5000 5000 0 5000 0 0 5000 0 5000 -5000 0 -5000 0 0
-5000z m3800 1196 c0 -7 -81 -548 -180 -1201 -99 -653 -180 -1191 -180 -1196
0 -5 -126 -9 -285 -9 -230 0 -285 3 -285 13 0 13 328 2197 351 2340 l11 67
284 0 c235 0 284 -2 284 -14z m690 3 c245 -39 439 -190 518 -401 66 -178 46
-455 -47 -654 -161 -343 -538 -534 -1056 -534 l-147 0 6 33 c3 17 15 95 26
172 11 77 23 150 26 163 4 21 9 22 93 22 206 0 365 79 439 218 70 132 81 302
26 409 -55 108 -141 150 -326 160 -60 3 -108 8 -108 10 0 1 14 93 30 203 17
110 30 202 30 205 0 10 426 5 490 -6z m-1542 -551 c-3 -18 -41 -268 -84 -555
l-78 -523 -243 0 -243 0 5 23 c2 12 39 252 80 532 41 281 77 520 80 533 l5 22
241 0 242 0 -5 -32z"/>
<path d="M3259 6178 c-8 -34 -354 -2345 -352 -2350 2 -5 116 -8 254 -8 137 0
249 3 250 8 0 4 80 531 178 1172 98 641 176 1168 174 1173 -4 6 -502 11 -504
5z"/>
<path d="M4026 6154 c-11 -53 -46 -292 -46 -313 0 -19 6 -21 53 -21 187 0 309
-61 375 -185 25 -46 27 -59 27 -170 0 -142 -23 -223 -86 -308 -89 -118 -207
-174 -394 -185 l-110 -7 -22 -140 c-12 -77 -22 -151 -22 -164 l-1 -24 168 6
c282 10 511 74 682 190 71 48 186 164 230 232 87 134 133 298 133 480 1 187
-41 308 -148 424 -72 77 -162 133 -278 173 -91 32 -95 32 -323 36 l-232 4 -6
-28z"/>
<path d="M2495 5638 c-4 -11 -155 -1019 -155 -1033 0 -3 95 -5 210 -5 116 0
210 2 210 5 0 3 34 230 75 505 41 275 75 509 75 520 0 19 -7 20 -205 20 -156
0 -207 -3 -210 -12z"/>
</g>
</svg>
