<?xml version="1.0" standalone="no"?>
<!DOCTYPE svg PUBLIC "-//W3C//DTD SVG 20010904//EN"
 "http://www.w3.org/TR/2001/REC-SVG-20010904/DTD/svg10.dtd">
<svg version="1.0" xmlns="http://www.w3.org/2000/svg"
 width="1116.000000pt" height="1116.000000pt" viewBox="0 0 1116.000000 1116.000000"
 preserveAspectRatio="xMidYMid meet">

<g transform="translate(0.000000,1116.000000) scale(0.100000,-0.100000)"
fill="#000000" stroke="none">
<path d="M5897 7943 c-4 -3 -7 -72 -7 -152 0 -237 41 -516 103 -701 l32 -95
812 -3 812 -2 -6 32 c-2 18 -35 233 -72 478 l-67 445 -800 3 c-440 1 -804 -1
-807 -5z"/>
<path d="M7905 7928 c7 -31 725 -4791 725 -4806 0 -9 138 -12 590 -12 l590 0
0 23 c-1 12 -164 1100 -363 2417 l-363 2395 -592 3 -592 2 5 -22z"/>
<path d="M9674 6843 c8 -38 326 -2167 326 -2182 0 -8 127 -11 485 -11 l485 0
-5 23 c-6 27 -325 2172 -325 2187 0 7 -155 10 -486 10 l-486 0 6 -27z"/>
<path d="M6549 5858 c-17 -65 -6 -338 21 -478 29 -160 74 -344 100 -412 l21
-58 640 0 640 0 -6 33 c-3 17 -39 239 -79 492 l-72 460 -627 3 -626 2 -12 -42z"/>
</g>
</svg>
