<?xml version="1.0" standalone="no"?>
<!DOCTYPE svg PUBLIC "-//W3C//DTD SVG 20010904//EN"
 "http://www.w3.org/TR/2001/REC-SVG-20010904/DTD/svg10.dtd">
<svg version="1.0" xmlns="http://www.w3.org/2000/svg"
 width="400.000000pt" height="400.000000pt" viewBox="0 0 400.000000 400.000000"
 preserveAspectRatio="xMidYMid meet">

<g transform="translate(0.000000,400.000000) scale(0.100000,-0.100000)"
fill="#000000" stroke="none">
<path d="M0 3634 l1 -366 34 6 c25 5 35 3 35 -6 -1 -21 -27 -51 -35 -39 -3 6
-1 11 4 11 6 0 11 5 11 10 0 6 -5 10 -11 10 -13 0 -42 -68 -35 -83 3 -9 5 -8
5 1 1 6 7 12 15 12 8 0 16 4 18 10 2 6 8 6 18 0 13 -8 12 -10 -2 -10 -10 0
-18 -5 -18 -11 0 -6 9 -9 20 -6 16 4 20 0 20 -19 0 -16 -4 -22 -14 -18 -13 5
-31 -24 -21 -34 3 -3 5 -1 5 5 0 6 12 14 26 17 20 5 24 11 18 28 -4 14 -2 18
5 14 6 -4 11 -15 12 -24 0 -9 5 -3 11 13 13 36 25 45 58 45 20 0 22 2 10 10
-13 9 -12 13 8 28 18 14 20 20 10 30 -10 10 -7 12 14 10 24 -2 25 -4 15 -28
-7 -14 -16 -28 -21 -31 -19 -14 7 -29 44 -25 25 2 44 -1 51 -10 19 -23 30 -16
14 10 -17 25 -8 70 16 78 21 7 18 48 -3 48 -22 0 -24 16 -2 24 8 3 13 10 10
15 -4 5 0 11 6 14 10 3 10 7 1 19 -7 8 -10 18 -6 21 3 4 -1 7 -10 7 -9 0 -17
5 -17 10 0 16 32 11 45 -7 11 -15 17 -15 41 -4 22 9 25 14 14 21 -8 5 -17 7
-21 4 -4 -2 -10 0 -14 6 -3 5 -2 10 3 10 6 0 8 9 5 20 -3 11 -12 20 -19 20 -8
0 -14 5 -14 10 0 6 12 10 26 10 20 0 24 -4 19 -19 -4 -15 -2 -18 12 -14 10 2
28 27 41 54 16 34 30 49 43 49 10 0 19 -6 19 -14 0 -9 -7 -12 -20 -9 -15 4
-20 0 -20 -16 0 -12 6 -21 15 -21 8 0 15 5 15 12 0 6 6 4 13 -7 9 -11 16 -14
20 -7 4 5 15 8 26 5 12 -3 20 2 24 16 6 23 51 46 81 42 18 -3 18 -2 3 14 -23
23 -21 28 8 21 18 -5 25 -2 25 9 0 8 5 15 11 15 8 0 8 5 -1 15 -7 8 -21 15
-31 15 -23 0 -35 18 -20 33 8 8 11 6 11 -6 0 -10 8 -17 20 -17 12 0 17 5 14
13 -3 8 2 14 13 14 56 -1 70 4 81 28 10 21 9 23 -6 18 -15 -6 -15 -5 -3 10 20
25 41 21 41 -8 0 -14 5 -25 11 -25 6 0 8 9 4 20 -7 23 30 79 38 58 9 -21 26
10 19 35 -5 19 -6 19 -18 2 -18 -24 -27 -15 -19 18 4 14 16 28 28 31 34 9 42
7 29 -6 -17 -17 -15 -28 4 -28 10 0 14 -6 11 -15 -4 -8 -2 -17 3 -20 6 -4 10
1 10 9 0 9 5 16 10 16 15 0 12 30 -2 30 -14 1 20 30 34 30 4 0 8 -9 8 -20 0
-20 0 -20 21 1 13 13 27 18 40 14 17 -6 18 -3 10 19 -9 22 -7 25 12 23 12 0
25 -6 30 -12 4 -6 9 -1 13 13 4 14 14 22 28 22 11 0 28 5 36 10 11 7 -1 10
-40 10 -31 0 -61 -5 -68 -12 -9 -9 -12 -9 -12 0 0 19 -30 14 -30 -5 -1 -17 -1
-17 -14 -1 -11 15 -56 17 -524 18 l-512 0 0 -366z m860 331 c-7 -8 -16 -15
-21 -15 -5 0 -6 7 -3 15 4 8 13 15 21 15 13 0 13 -3 3 -15z m95 -14 c-3 -6
-18 -11 -33 -11 l-27 1 30 13 c32 14 41 13 30 -3z m81 -19 c-4 -3 -11 0 -15 7
-5 7 -14 10 -20 7 -6 -4 -11 -3 -11 3 0 5 6 11 12 13 15 5 43 -20 34 -30z
m-163 -22 c-3 -11 -12 -20 -19 -20 -20 0 -17 28 4 33 9 3 18 5 19 6 0 0 -1 -8
-4 -19z m-76 -36 c-3 -3 -12 -4 -19 -1 -8 3 -5 6 6 6 11 1 17 -2 13 -5z m63
-23 c0 -4 -5 -13 -10 -21 -6 -10 -10 -11 -10 -2 0 22 -25 12 -38 -15 -7 -16
-24 -36 -38 -47 -26 -18 -26 -18 -15 2 6 11 8 29 5 39 -5 14 -4 15 4 4 13 -18
42 -7 42 17 0 10 2 21 5 23 6 7 55 6 55 0z m-115 -21 c-3 -5 -11 -10 -16 -10
-6 0 -7 5 -4 10 3 6 11 10 16 10 6 0 7 -4 4 -10z m-105 -120 c0 -5 -4 -10 -10
-10 -5 0 -10 -5 -10 -11 0 -6 7 -8 16 -5 14 5 15 4 4 -9 -27 -32 -40 -16 -31
38 2 11 31 8 31 -3z m3 -73 c4 3 7 1 7 -5 0 -16 -18 -24 -23 -10 -3 10 -7 10
-20 -1 -19 -15 -23 -1 -5 17 7 7 16 8 23 2 7 -5 15 -7 18 -3z m-233 -17 c0 -5
-4 -10 -10 -10 -5 0 -10 5 -10 10 0 6 5 10 10 10 6 0 10 -4 10 -10z m127 -6
c5 -13 7 -13 14 -2 7 10 9 9 9 -4 0 -24 -27 -23 -40 2 -8 14 -8 20 0 20 6 0
13 -7 17 -16z m-157 -42 c0 -27 -10 -33 -28 -16 -13 14 -13 17 -1 25 21 13 29
11 29 -9z m165 -2 c3 -5 1 -10 -4 -10 -6 0 -11 5 -11 10 0 6 2 10 4 10 3 0 8
-4 11 -10z m45 1 c0 -5 -7 -11 -15 -15 -15 -5 -20 5 -8 17 9 10 23 9 23 -2z
m-266 -36 c-4 -8 -13 -15 -21 -15 -13 0 -13 3 -3 15 7 8 16 15 21 15 5 0 6 -7
3 -15z m-149 -35 c3 -5 1 -10 -4 -10 -6 0 -11 5 -11 10 0 6 2 10 4 10 3 0 8
-4 11 -10z m175 -25 c0 -8 -9 -15 -19 -15 -29 0 -35 18 -9 23 13 2 24 5 26 6
1 0 2 -6 2 -14z m-100 -16 c0 -6 -4 -7 -10 -4 -5 3 -10 11 -10 16 0 6 5 7 10
4 6 -3 10 -11 10 -16z m-35 -28 c3 -5 1 -12 -5 -16 -5 -3 -10 1 -10 9 0 18 6
21 15 7z m95 -11 c0 -5 -6 -10 -14 -10 -8 0 -16 -6 -19 -12 -2 -7 -8 -10 -12
-5 -5 4 0 14 11 22 23 17 34 19 34 5z m4 -71 c-22 -24 -34 -24 -34 0 0 11 8
21 18 24 28 6 35 -4 16 -24z m-74 5 c0 -2 -7 -4 -15 -4 -8 0 -15 4 -15 10 0 5
7 7 15 4 8 -4 15 -8 15 -10z m30 -54 c0 -5 -4 -10 -10 -10 -5 0 -10 5 -10 10
0 6 5 10 10 10 6 0 10 -4 10 -10z m40 1 c0 -5 -7 -11 -15 -15 -9 -3 -15 0 -15
9 0 8 7 15 15 15 8 0 15 -4 15 -9z m-120 -11 c0 -5 -4 -10 -10 -10 -5 0 -10 5
-10 10 0 6 5 10 10 10 6 0 10 -4 10 -10z m-40 -23 c0 -7 -5 -18 -12 -25 -9 -9
-9 -12 0 -12 7 0 12 -7 12 -15 0 -8 -6 -15 -14 -15 -8 0 -16 -6 -19 -12 -2 -7
-3 -5 -2 4 2 9 -3 19 -11 22 -8 3 -14 1 -14 -5 0 -6 -4 -7 -10 -4 -15 10 -12
35 5 35 18 0 20 16 3 23 -8 3 -6 6 5 6 9 1 17 -3 17 -9 0 -5 7 -7 15 -4 8 4
12 10 9 15 -3 5 0 9 5 9 6 0 11 -6 11 -13z m164 -11 c-3 -9 -12 -16 -20 -16
-20 0 -17 28 4 32 22 5 24 4 16 -16z"/>
<path d="M1240 3985 c0 -20 -37 -39 -43 -22 -3 6 -6 2 -6 -10 -1 -25 -16 -31
-25 -10 -3 9 -9 7 -19 -5 -8 -10 -19 -18 -26 -18 -6 0 -11 -4 -11 -9 0 -13 30
-35 37 -27 4 4 1 11 -6 15 -18 12 -2 20 47 23 22 2 38 6 35 11 -2 4 0 7 6 7 5
0 11 6 14 13 2 6 2 -1 -1 -17 -4 -26 -2 -28 19 -22 58 18 72 19 64 6 -6 -10
-4 -12 9 -7 10 4 20 7 22 7 2 0 4 5 4 10 0 6 -9 10 -20 10 -29 0 -24 17 10 35
30 16 40 9 18 -13 -9 -9 -5 -12 20 -12 18 0 32 4 32 9 0 12 -46 41 -65 41 -17
0 -45 -23 -45 -37 0 -4 -9 -14 -20 -20 -16 -10 -18 -10 -14 1 3 7 -2 16 -11
20 -10 3 -15 12 -11 21 3 8 1 15 -4 15 -6 0 -10 -7 -10 -15z"/>
<path d="M1440 3983 c0 -12 5 -25 11 -28 19 -12 22 3 5 27 l-16 22 0 -21z"/>
<path d="M1540 3991 c0 -6 -7 -11 -15 -11 -17 0 -20 -16 -5 -25 6 -3 10 -1 10
4 0 6 7 11 15 11 17 0 20 16 5 25 -5 3 -10 1 -10 -4z"/>
<path d="M1638 3993 c6 -2 12 -9 12 -14 0 -6 -6 -9 -12 -8 -7 1 -20 -1 -28 -4
-8 -3 -24 -8 -35 -11 -11 -3 2 -3 29 0 62 7 76 13 76 30 0 9 -10 14 -27 13
-16 0 -22 -3 -15 -6z"/>
<path d="M1710 3981 c0 -11 -9 -21 -21 -24 -13 -3 -18 -10 -14 -17 5 -8 14 -5
30 10 20 19 23 19 29 5 10 -27 7 -35 -13 -35 -10 0 -25 -7 -32 -17 -8 -9 -9
-14 -4 -11 6 2 25 10 43 17 30 12 36 25 35 69 -1 8 8 12 20 10 23 -3 59 -56
49 -73 -3 -5 4 -2 16 9 19 16 22 17 28 3 3 -9 12 -13 20 -10 9 3 14 -2 14 -13
0 -16 2 -17 10 -4 5 8 10 10 10 4 0 -6 7 -11 15 -11 8 0 12 4 9 9 -3 4 -1 8 5
8 6 0 8 7 4 16 -5 13 -7 13 -14 2 -7 -10 -21 -7 -66 18 -32 17 -57 36 -55 42
1 8 -18 12 -58 12 -52 0 -60 -2 -60 -19z"/>
<path d="M1860 3986 c0 -12 10 -16 35 -16 19 0 35 -4 35 -10 0 -5 7 -10 16
-10 10 0 14 7 12 23 -3 19 -10 22 -50 25 -38 2 -48 0 -48 -12z"/>
<path d="M1979 3993 c0 -5 -2 -19 -3 -33 -4 -35 13 -80 30 -80 16 0 19 26 4
35 -17 10 0 26 21 20 15 -5 19 -1 19 15 0 17 -4 20 -21 15 -15 -5 -19 -4 -14
4 4 7 14 11 23 10 29 -3 42 1 42 11 0 11 -100 14 -101 3z"/>
<path d="M2118 3993 c6 -2 18 -2 25 0 6 3 1 5 -13 5 -14 0 -19 -2 -12 -5z"/>
<path d="M2160 3985 c0 -13 -9 -17 -36 -15 -3 1 -14 -9 -24 -22 -11 -13 -19
-17 -20 -10 0 6 -5 12 -12 12 -9 0 -9 -3 0 -12 9 -9 5 -17 -16 -35 -15 -12
-22 -24 -17 -24 43 -6 56 -5 61 2 8 14 24 10 24 -6 0 -8 4 -15 8 -15 17 0 21
13 9 34 -7 11 -13 23 -14 25 -1 2 -10 -5 -20 -14 -13 -14 -18 -15 -22 -4 -2 7
1 15 8 17 6 2 18 10 25 18 8 8 22 11 30 8 10 -4 16 -1 16 7 0 7 7 21 17 31 15
17 15 18 0 18 -10 0 -17 -7 -17 -15z"/>
<path d="M2210 3986 c-5 -5 -10 -16 -10 -23 0 -7 -4 -13 -10 -13 -5 0 -10 -4
-10 -10 0 -5 6 -9 13 -7 6 1 11 -6 9 -15 -2 -11 3 -18 13 -18 8 0 15 5 15 12
0 7 6 6 18 -4 9 -8 26 -18 37 -22 19 -6 19 -5 3 8 -10 7 -18 18 -18 25 0 6 -8
11 -19 11 -22 0 -45 25 -36 40 9 15 25 12 25 -4 0 -8 14 -15 34 -18 27 -3 36
0 39 14 7 26 37 23 37 -4 1 -22 1 -23 15 -4 30 39 20 46 -65 44 -44 -1 -84 -6
-90 -12z"/>
<path d="M2401 3974 c-13 -30 -7 -44 11 -26 7 7 25 12 41 12 41 0 29 -22 -19
-36 -26 -7 -40 -17 -42 -30 -2 -17 -1 -17 10 -3 7 9 28 18 46 21 38 5 44 -16
12 -52 -24 -28 -25 -34 -3 -26 9 4 20 2 23 -5 6 -8 9 -8 14 0 4 6 2 11 -3 11
-6 0 -11 7 -11 15 0 9 9 15 21 15 12 0 28 8 35 18 11 13 15 14 22 4 7 -10 11
-10 21 1 9 12 7 16 -14 21 -13 3 -34 1 -44 -6 -25 -15 -36 -5 -22 19 8 14 11
15 12 3 0 -8 5 -4 9 10 6 19 8 20 9 6 1 -15 6 -17 33 -12 38 8 36 5 42 39 6
32 5 32 -24 7 -26 -22 -40 -19 -20 5 11 13 6 15 -41 15 -34 0 -49 -3 -40 -9 8
-5 9 -11 3 -15 -13 -8 -42 3 -42 15 0 20 -28 7 -39 -17z"/>
<path d="M2642 3972 c2 -22 -1 -28 -20 -30 -26 -4 -24 -28 2 -26 11 1 16 -6
16 -22 0 -23 16 -41 28 -30 3 4 1 16 -6 26 -7 12 -8 20 -2 20 5 0 10 -5 10
-11 0 -6 7 -9 15 -5 18 6 20 -15 3 -32 -8 -8 -2 -10 28 -5 21 3 36 2 32 -2
-12 -13 12 -35 36 -34 19 0 19 1 -4 10 -20 8 -22 12 -10 20 11 8 12 12 3 16
-18 7 -16 23 2 23 8 0 15 -4 15 -9 0 -5 9 -7 20 -4 11 3 17 10 14 17 -3 6 4 0
15 -13 17 -19 24 -21 36 -11 12 10 18 10 30 0 12 -10 15 -10 15 3 0 27 -12 47
-27 47 -8 0 -12 -4 -9 -9 7 -10 -24 -25 -33 -15 -8 7 28 34 47 34 22 0 45 -30
47 -62 2 -33 -21 -50 -36 -27 -8 12 -10 12 -19 -1 -11 -17 12 -29 66 -33 25
-1 34 -6 31 -17 -1 -9 -12 -14 -27 -13 -46 3 -55 -5 -32 -27 25 -24 32 -25 32
-5 0 14 12 19 33 16 4 0 7 5 7 13 0 9 7 12 20 9 26 -7 26 14 1 22 -33 10 -32
47 1 41 4 0 13 8 21 18 9 13 18 16 28 10 8 -5 23 -7 33 -5 14 2 17 -2 13 -13
-6 -14 -3 -15 13 -6 11 6 25 8 30 5 6 -3 10 -1 10 4 0 6 5 11 10 11 6 0 10 -7
10 -16 0 -12 -6 -15 -22 -11 -13 3 -34 -1 -48 -9 -24 -13 -22 -14 33 -10 44 4
57 1 57 -10 0 -7 13 -20 29 -29 42 -21 46 -33 20 -61 -12 -13 -21 -25 -18 -27
2 -2 21 -13 42 -25 l37 -21 2 42 1 42 4 -37 c3 -25 9 -38 19 -38 8 0 17 -7 20
-15 8 -20 34 0 33 24 0 10 -2 11 -6 4 -7 -18 -23 -16 -23 2 0 16 35 21 44 6 3
-5 16 -7 29 -4 17 5 20 3 10 -7 -6 -7 -10 -18 -9 -24 2 -6 1 -8 -1 -3 -5 8
-33 10 -33 1 0 -3 6 -12 14 -20 17 -16 46 -9 46 12 0 8 9 14 20 14 21 0 26 10
11 26 -5 5 -2 22 6 39 14 30 14 30 8 3 -4 -21 -1 -28 10 -28 12 0 14 -4 5 -19
-5 -11 -10 -28 -10 -38 0 -15 5 -13 28 10 21 22 24 29 13 36 -11 7 -9 11 9 21
18 10 24 9 31 -1 4 -8 3 -20 -4 -28 -9 -11 -9 -15 1 -18 6 -3 12 -10 12 -16 0
-8 -3 -8 -12 1 -15 15 -52 -4 -44 -24 3 -8 -1 -14 -9 -14 -8 0 -15 -4 -15 -9
0 -11 62 -24 69 -14 3 5 11 9 18 10 20 4 10 -60 -12 -79 -20 -17 -20 -17 0
-12 16 4 25 -3 38 -31 15 -31 22 -36 42 -33 16 4 25 0 28 -11 2 -10 4 -8 3 4
-1 13 -7 19 -19 19 -10 -1 -16 3 -14 10 2 6 12 10 21 10 10 -1 16 6 16 21 0
22 -3 23 -32 14 -42 -12 -41 -12 -34 6 3 8 1 15 -4 15 -6 0 -10 5 -10 11 0 5
5 7 11 4 5 -4 24 -9 41 -12 22 -3 29 -1 26 9 -3 7 -18 14 -35 16 -24 2 -34 10
-42 33 -11 32 -20 36 -39 17 -10 -10 -15 -10 -22 2 -13 19 -12 30 0 30 6 0 10
-5 10 -11 0 -14 58 32 65 53 3 9 12 19 20 22 11 4 12 0 6 -17 -9 -24 -11 -31
-11 -48 0 -6 -9 -8 -22 -4 -19 6 -21 5 -10 -6 6 -7 12 -22 12 -33 1 -19 2 -19
13 -5 11 14 14 14 31 -3 25 -23 36 -23 36 1 0 22 58 38 74 20 8 -9 5 -10 -11
-6 -14 3 -21 1 -20 -7 1 -6 -3 -10 -10 -9 -14 3 -27 -32 -18 -47 3 -5 1 -10
-4 -10 -6 0 -11 -4 -11 -10 0 -5 7 -10 15 -10 18 0 20 -17 3 -23 -10 -3 -10
-7 1 -20 21 -26 27 -20 23 18 -4 29 0 36 19 44 l24 9 -27 7 c-38 10 -35 17 12
37 40 16 51 13 28 -10 -9 -9 -9 -15 0 -24 8 -8 12 -9 12 -1 0 6 18 14 40 18
22 4 40 12 40 19 0 7 10 12 23 11 12 -1 28 2 35 8 8 6 12 6 12 -1 0 -14 -23
-31 -51 -36 -13 -3 -26 -5 -29 -6 -3 -1 5 -5 17 -10 16 -6 20 -14 16 -30 -3
-12 -12 -24 -19 -27 -8 -3 -14 -12 -14 -20 0 -8 -6 -13 -12 -10 -7 2 -12 16
-10 31 1 14 -2 26 -9 26 -6 0 -8 -7 -5 -15 3 -9 -1 -18 -10 -22 -8 -3 -13 -11
-10 -18 3 -8 -2 -16 -10 -19 -21 -8 -17 -26 6 -26 11 0 20 -7 20 -15 0 -8 5
-15 10 -15 6 0 10 -6 10 -13 0 -9 -10 -12 -30 -9 -17 2 -30 0 -30 -6 0 -6 -12
-12 -27 -14 -33 -4 -44 -28 -13 -28 19 0 20 -2 10 -15 -10 -12 -10 -15 4 -15
9 0 16 5 16 10 0 6 6 10 14 10 8 0 18 5 22 12 5 8 2 9 -9 5 -18 -7 -24 8 -8
18 5 3 19 -7 31 -22 l22 -28 -7 28 c-6 23 -5 26 10 21 13 -5 16 -3 13 7 -3 8
2 20 11 27 9 8 11 11 4 8 -17 -9 -25 10 -10 22 13 11 31 2 57 -32 14 -18 13
-19 -14 -12 -25 6 -28 5 -23 -13 3 -11 0 -22 -7 -24 -19 -7 1 -19 36 -21 l34
-1 1 67 c1 39 -3 68 -8 68 -6 0 -7 -9 -4 -20 8 -24 -10 -27 -32 -5 -15 16 -11
51 6 41 4 -3 17 4 27 16 19 21 19 21 -2 10 -12 -6 -24 -8 -28 -5 -8 9 14 33
30 33 12 0 14 44 14 250 l0 250 -554 0 c-468 0 -559 -2 -590 -15 -43 -18 -50
-19 -43 -2 4 10 -15 14 -85 15 l-89 2 3 -28z m43 8 c-3 -5 -10 -10 -16 -10 -5
0 -9 5 -9 10 0 6 7 10 16 10 8 0 12 -4 9 -10z m235 -5 c0 -8 -7 -15 -15 -15
-9 0 -12 6 -9 15 4 8 10 15 15 15 5 0 9 -7 9 -15z m-145 -5 c8 -13 -5 -13 -25
0 -13 8 -13 10 2 10 9 0 20 -4 23 -10z m265 -32 c0 -11 -8 -18 -19 -18 -11 0
-26 -3 -35 -6 -12 -4 -16 0 -16 15 0 12 5 21 10 21 6 0 10 -4 10 -10 0 -5 9
-10 20 -10 11 0 20 5 20 10 0 6 -7 10 -15 10 -8 0 -15 7 -15 15 0 13 3 13 20
3 11 -7 20 -21 20 -30z m-338 0 c-7 -7 -12 -8 -12 -2 0 6 3 14 7 17 3 4 9 5
12 2 2 -3 -1 -11 -7 -17z m118 12 c0 -5 -4 -10 -10 -10 -5 0 -10 5 -10 10 0 6
5 10 10 10 6 0 10 -4 10 -10z m-66 -41 c-18 -18 -22 -19 -27 -5 -4 10 -1 16 8
16 8 0 14 3 14 8 -3 19 2 25 13 14 10 -10 8 -17 -8 -33z m-74 21 c0 -5 -5 -10
-11 -10 -5 0 -7 5 -4 10 3 6 8 10 11 10 2 0 4 -4 4 -10z m170 1 c0 -10 -42
-23 -49 -15 -7 6 20 24 37 24 6 0 12 -4 12 -9z m250 -31 c0 -5 -4 -10 -10 -10
-5 0 -10 5 -10 10 0 6 5 10 10 10 6 0 10 -4 10 -10z m-60 -10 c0 -5 -7 -10
-16 -10 -8 0 -12 5 -9 10 3 6 10 10 16 10 5 0 9 -4 9 -10z m-53 -26 c-3 -3
-12 -4 -19 -1 -8 3 -5 6 6 6 11 1 17 -2 13 -5z m428 -14 c3 -5 -1 -10 -10 -10
-9 0 -13 5 -10 10 3 6 8 10 10 10 2 0 7 -4 10 -10z m-81 -25 c3 -8 1 -15 -4
-15 -6 0 -10 7 -10 15 0 8 2 15 4 15 2 0 6 -7 10 -15z m34 -32 c-21 -2 -38 -8
-38 -14 0 -14 -26 -11 -39 5 -9 11 -1 13 51 13 37 0 47 -2 26 -4z m77 -23 c3
-5 -3 -10 -15 -10 -12 0 -18 5 -15 10 3 6 10 10 15 10 5 0 12 -4 15 -10z m-78
-16 c-3 -3 -12 -4 -19 -1 -8 3 -5 6 6 6 11 1 17 -2 13 -5z m233 -25 c0 -5 -7
-9 -15 -9 -15 0 -20 12 -9 23 8 8 24 -1 24 -14z m155 1 c3 -5 1 -10 -4 -10 -6
0 -11 5 -11 10 0 6 2 10 4 10 3 0 8 -4 11 -10z m-347 -6 c31 -9 27 -21 -7 -22
-17 0 -32 5 -35 14 -6 15 6 17 42 8z m39 -26 c-3 -7 -5 -2 -5 12 0 14 2 19 5
13 2 -7 2 -19 0 -25z m-137 8 c0 -14 -24 -29 -33 -19 -3 3 -3 11 0 19 7 18 33
18 33 0z m327 -8 c-3 -8 -6 -5 -6 6 -1 11 2 17 5 13 3 -3 4 -12 1 -19z m-277
-4 c0 -8 -5 -12 -10 -9 -6 4 -8 11 -5 16 9 14 15 11 15 -7z m397 -20 c-3 -3
-12 -4 -19 -1 -8 3 -5 6 6 6 11 1 17 -2 13 -5z m29 -41 c-11 -11 -17 4 -9 23
7 18 8 18 11 1 2 -10 1 -21 -2 -24z m-66 -46 c0 -5 -7 -2 -15 7 -8 8 -15 20
-15 27 0 14 29 -20 30 -34z m100 33 c0 -5 -4 -10 -10 -10 -5 0 -10 5 -10 10 0
6 5 10 10 10 6 0 10 -4 10 -10z m100 -196 c0 -17 -22 -14 -28 4 -2 7 3 12 12
12 9 0 16 -7 16 -16z"/>
<path d="M1786 3943 c-11 -11 -6 -23 9 -23 8 0 15 4 15 9 0 13 -16 22 -24 14z"/>
<path d="M1400 3930 c0 -5 -7 -10 -15 -10 -8 0 -15 -9 -15 -20 0 -11 5 -20 10
-20 6 0 10 7 10 15 0 9 7 18 15 21 17 7 20 24 5 24 -5 0 -10 -4 -10 -10z"/>
<path d="M1530 3929 c0 -5 5 -7 10 -4 6 3 10 8 10 11 0 2 -4 4 -10 4 -5 0 -10
-5 -10 -11z"/>
<path d="M2320 3935 c0 -4 8 -14 17 -20 20 -15 58 -1 47 16 -4 6 -11 6 -20 -2
-11 -9 -17 -9 -29 1 -8 7 -15 9 -15 5z"/>
<path d="M2156 3915 c-9 -26 -7 -32 5 -12 6 10 9 21 6 23 -2 3 -7 -2 -11 -11z"/>
<path d="M1585 3910 c-3 -5 -1 -10 4 -10 6 0 11 5 11 10 0 6 -2 10 -4 10 -3 0
-8 -4 -11 -10z"/>
<path d="M1425 3900 c4 -6 11 -8 16 -5 14 9 11 15 -7 15 -8 0 -12 -5 -9 -10z"/>
<path d="M1200 3890 c0 -5 7 -7 15 -4 8 4 15 8 15 10 0 2 -7 4 -15 4 -8 0 -15
-4 -15 -10z"/>
<path d="M1510 3890 c0 -5 7 -7 15 -4 8 4 15 8 15 10 0 2 -7 4 -15 4 -8 0 -15
-4 -15 -10z"/>
<path d="M1797 3893 c-12 -12 -7 -22 8 -17 8 4 15 10 15 15 0 11 -14 12 -23 2z"/>
<path d="M2173 3878 c-14 -19 -24 -48 -15 -48 8 0 34 52 28 57 -2 2 -8 -2 -13
-9z"/>
<path d="M2316 3873 c-6 -14 -5 -15 5 -6 7 7 10 15 7 18 -3 3 -9 -2 -12 -12z"/>
<path d="M1090 3870 c0 -5 5 -10 10 -10 6 0 10 5 10 10 0 6 -4 10 -10 10 -5 0
-10 -4 -10 -10z"/>
<path d="M2207 3873 c-4 -3 -7 -12 -7 -20 0 -18 26 -17 34 2 3 8 12 12 21 9 8
-3 15 -1 15 5 0 12 -52 15 -63 4z"/>
<path d="M2353 3866 c-4 -8 -19 -16 -33 -19 -22 -4 -21 -4 6 -6 24 -1 33 4 37
19 6 23 1 26 -10 6z"/>
<path d="M2420 3855 c-11 -13 -10 -14 4 -9 9 3 16 10 16 15 0 13 -6 11 -20 -6z"/>
<path d="M2570 3857 c0 -9 12 -14 33 -14 17 0 24 2 15 4 -10 3 -18 9 -18 14 0
5 -7 9 -15 9 -8 0 -15 -6 -15 -13z"/>
<path d="M985 3850 c-3 -5 -1 -10 4 -10 6 0 11 5 11 10 0 6 -2 10 -4 10 -3 0
-8 -4 -11 -10z"/>
<path d="M1570 3850 c0 -5 7 -7 15 -4 8 4 15 8 15 10 0 2 -7 4 -15 4 -8 0 -15
-4 -15 -10z"/>
<path d="M1860 3849 c0 -13 50 -20 68 -9 13 8 11 9 -10 4 -16 -3 -28 -2 -28 3
0 5 -7 10 -15 10 -8 0 -15 -4 -15 -8z"/>
<path d="M2806 3851 c-3 -5 0 -11 8 -14 15 -6 26 1 26 15 0 11 -27 10 -34 -1z"/>
<path d="M3056 3833 c9 -36 12 -39 26 -25 14 14 2 42 -21 50 -8 3 -10 -4 -5
-25z"/>
<path d="M1978 3843 c7 -3 16 -2 19 1 4 3 -2 6 -13 5 -11 0 -14 -3 -6 -6z"/>
<path d="M2098 3843 c7 -3 16 -2 19 1 4 3 -2 6 -13 5 -11 0 -14 -3 -6 -6z"/>
<path d="M2857 3830 c-19 -22 -22 -35 -7 -25 10 6 34 45 28 45 -2 0 -11 -9
-21 -20z"/>
<path d="M3030 3829 c0 -5 5 -7 10 -4 6 3 10 8 10 11 0 2 -4 4 -10 4 -5 0 -10
-5 -10 -11z"/>
<path d="M1542 3814 c-7 -8 -8 -14 -3 -14 10 0 25 19 20 25 -2 1 -10 -3 -17
-11z"/>
<path d="M2213 3823 c-14 -5 -18 -23 -5 -23 5 0 17 7 28 15 14 11 15 14 4 14
-8 0 -21 -3 -27 -6z"/>
<path d="M2280 3814 c0 -8 5 -12 10 -9 6 3 10 10 10 16 0 5 -4 9 -10 9 -5 0
-10 -7 -10 -16z"/>
<path d="M2587 3824 c-8 -8 1 -24 14 -24 5 0 9 7 9 15 0 15 -12 20 -23 9z"/>
<path d="M2025 3810 c-3 -5 -1 -10 4 -10 6 0 11 5 11 10 0 6 -2 10 -4 10 -3 0
-8 -4 -11 -10z"/>
<path d="M2341 3806 c-9 -10 -8 -15 4 -20 10 -4 15 1 15 14 0 24 -4 25 -19 6z"/>
<path d="M2628 3790 c-13 -23 -14 -30 -3 -34 8 -3 15 6 18 27 6 41 5 42 -15 7z"/>
<path d="M2816 3803 c-4 -9 0 -23 9 -32 10 -10 15 -11 15 -3 0 7 -5 12 -11 12
-6 0 -8 9 -4 20 8 24 0 27 -9 3z"/>
<path d="M1455 3800 c-18 -8 -17 -9 8 -9 15 -1 27 4 27 9 0 12 -8 12 -35 0z"/>
<path d="M2132 3798 c-18 -18 -15 -28 8 -28 13 0 20 7 20 20 0 23 -10 26 -28
8z"/>
<path d="M3165 3800 c3 -5 11 -10 16 -10 6 0 7 5 4 10 -3 6 -11 10 -16 10 -6
0 -7 -4 -4 -10z"/>
<path d="M885 3790 c3 -5 13 -10 21 -10 8 0 14 5 14 10 0 6 -9 10 -21 10 -11
0 -17 -4 -14 -10z"/>
<path d="M2660 3790 c0 -5 5 -10 11 -10 5 0 7 5 4 10 -3 6 -8 10 -11 10 -2 0
-4 -4 -4 -10z"/>
<path d="M3088 3784 c-33 -17 -34 -22 -10 -40 25 -20 38 -17 19 4 -10 10 -14
22 -10 25 10 11 41 8 62 -5 15 -9 17 -16 10 -31 -8 -14 -13 -16 -25 -6 -11 9
-14 8 -14 -4 0 -24 41 -30 47 -6 7 26 21 24 26 -3 3 -17 5 -15 6 9 1 26 -5 35
-33 52 -39 25 -42 25 -78 5z"/>
<path d="M3200 3776 c0 -10 8 -16 22 -16 12 0 19 1 17 3 -2 1 -12 9 -21 16
-15 12 -18 11 -18 -3z"/>
<path d="M2850 3770 c0 -6 7 -10 15 -10 8 0 15 2 15 4 0 2 -7 6 -15 10 -8 3
-15 1 -15 -4z"/>
<path d="M940 3755 c0 -9 5 -15 11 -13 6 2 11 8 11 13 0 5 -5 11 -11 13 -6 2
-11 -4 -11 -13z"/>
<path d="M2717 3749 c4 -15 8 -17 19 -8 18 15 18 16 -5 22 -14 3 -17 0 -14
-14z"/>
<path d="M2785 3760 c3 -5 8 -10 11 -10 2 0 4 5 4 10 0 6 -5 10 -11 10 -5 0
-7 -4 -4 -10z"/>
<path d="M2000 3743 c0 -10 4 -14 8 -8 4 6 11 13 16 18 5 4 2 7 -7 7 -10 0
-17 -8 -17 -17z"/>
<path d="M2040 3744 c0 -8 5 -12 10 -9 6 4 8 11 5 16 -9 14 -15 11 -15 -7z"/>
<path d="M2465 3750 c4 -6 11 -8 16 -5 14 9 11 15 -7 15 -8 0 -12 -5 -9 -10z"/>
<path d="M1440 3730 c0 -5 5 -10 11 -10 5 0 7 5 4 10 -3 6 -8 10 -11 10 -2 0
-4 -4 -4 -10z"/>
<path d="M3210 3729 c0 -5 5 -7 10 -4 6 3 10 8 10 11 0 2 -4 4 -10 4 -5 0 -10
-5 -10 -11z"/>
<path d="M865 3720 c-3 -5 1 -10 10 -10 9 0 13 5 10 10 -3 6 -8 10 -10 10 -2
0 -7 -4 -10 -10z"/>
<path d="M2320 3726 c0 -2 7 -6 15 -10 8 -3 15 -1 15 4 0 6 -7 10 -15 10 -8 0
-15 -2 -15 -4z"/>
<path d="M2810 3719 c0 -5 5 -7 10 -4 6 3 10 8 10 11 0 2 -4 4 -10 4 -5 0 -10
-5 -10 -11z"/>
<path d="M2973 3723 c-7 -3 -13 -12 -13 -21 0 -15 2 -15 17 1 18 18 16 27 -4
20z"/>
<path d="M3045 3720 c4 -6 11 -8 16 -5 14 9 11 15 -7 15 -8 0 -12 -5 -9 -10z"/>
<path d="M797 3703 c-12 -12 -7 -19 12 -19 15 0 17 3 9 13 -12 15 -13 15 -21
6z"/>
<path d="M2826 3683 c-6 -14 -5 -15 5 -6 7 7 10 15 7 18 -3 3 -9 -2 -12 -12z"/>
<path d="M3032 3680 c7 -10 14 -18 15 -16 6 6 -9 36 -18 36 -5 0 -4 -9 3 -20z"/>
<path d="M755 3670 c-3 -5 -1 -10 4 -10 6 0 11 5 11 10 0 6 -2 10 -4 10 -3 0
-8 -4 -11 -10z"/>
<path d="M1988 3673 c7 -3 16 -2 19 1 4 3 -2 6 -13 5 -11 0 -14 -3 -6 -6z"/>
<path d="M2920 3670 c0 -5 7 -7 15 -4 8 4 15 8 15 10 0 2 -7 4 -15 4 -8 0 -15
-4 -15 -10z"/>
<path d="M802 3641 c-8 -5 -12 -17 -10 -27 3 -15 6 -14 21 9 18 27 13 34 -11
18z"/>
<path d="M3325 3630 c-3 -5 -1 -10 4 -10 6 0 11 5 11 10 0 6 -2 10 -4 10 -3 0
-8 -4 -11 -10z"/>
<path d="M725 3610 c3 -5 16 -10 28 -10 18 0 19 2 7 10 -20 13 -43 13 -35 0z"/>
<path d="M3493 3614 c3 -3 2 -17 -3 -30 -7 -19 -6 -24 5 -24 10 0 15 10 15 30
0 17 -5 30 -12 30 -6 0 -9 -3 -5 -6z"/>
<path d="M3275 3600 c-3 -5 -1 -10 4 -10 6 0 11 5 11 10 0 6 -2 10 -4 10 -3 0
-8 -4 -11 -10z"/>
<path d="M3098 3593 c6 -2 18 -2 25 0 6 3 1 5 -13 5 -14 0 -19 -2 -12 -5z"/>
<path d="M3310 3591 c0 -5 7 -14 15 -21 12 -10 19 -10 27 -2 9 9 8 12 -5 12
-9 0 -17 5 -17 10 0 6 -4 10 -10 10 -5 0 -10 -4 -10 -9z"/>
<path d="M685 3561 c-13 -27 -13 -31 -1 -31 8 0 21 9 30 21 10 15 20 19 36 14
16 -5 21 -3 18 6 -3 8 -19 15 -36 17 -26 3 -33 -2 -47 -27z"/>
<path d="M3185 3580 c-3 -5 -1 -10 4 -10 6 0 11 5 11 10 0 6 -2 10 -4 10 -3 0
-8 -4 -11 -10z"/>
<path d="M636 3558 c-24 -28 -12 -34 18 -10 19 14 22 21 12 25 -7 3 -21 -4
-30 -15z"/>
<path d="M3549 3548 c-7 -13 -17 -26 -23 -30 -8 -6 -8 -8 1 -8 16 0 43 28 43
46 0 20 -8 17 -21 -8z"/>
<path d="M3138 3553 c7 -3 16 -2 19 1 4 3 -2 6 -13 5 -11 0 -14 -3 -6 -6z"/>
<path d="M3380 3550 c0 -5 5 -10 10 -10 6 0 10 5 10 10 0 6 -4 10 -10 10 -5 0
-10 -4 -10 -10z"/>
<path d="M732 3528 c-15 -15 -15 -28 -1 -28 5 0 8 4 5 9 -4 5 0 11 6 14 7 2
10 7 7 10 -3 4 -11 1 -17 -5z"/>
<path d="M3870 3533 c0 -7 33 -32 43 -33 16 0 5 16 -18 27 -14 6 -25 9 -25 6z"/>
<path d="M637 3523 c-15 -14 -6 -23 22 -23 37 0 49 16 18 24 -28 7 -32 7 -40
-1z"/>
<path d="M475 3510 c3 -5 10 -10 16 -10 5 0 9 5 9 10 0 6 -7 10 -16 10 -8 0
-12 -4 -9 -10z"/>
<path d="M577 3506 c-3 -8 1 -17 9 -20 25 -10 30 -7 30 14 0 23 -31 28 -39 6z"/>
<path d="M3283 3513 c9 -2 23 -2 30 0 6 3 -1 5 -18 5 -16 0 -22 -2 -12 -5z"/>
<path d="M3815 3510 c-16 -7 -17 -9 -3 -9 9 -1 20 4 23 9 7 11 7 11 -20 0z"/>
<path d="M3780 3481 c0 -6 4 -11 9 -11 5 0 11 -9 13 -21 3 -19 5 -18 26 11 23
31 23 31 2 20 -16 -9 -25 -9 -36 1 -10 8 -14 8 -14 0z"/>
<path d="M440 3470 c-11 -6 -12 -12 -4 -20 13 -13 46 -2 41 13 -5 15 -20 18
-37 7z"/>
<path d="M690 3460 c0 -5 5 -10 10 -10 6 0 10 5 10 10 0 6 -4 10 -10 10 -5 0
-10 -4 -10 -10z"/>
<path d="M3540 3455 c-7 -9 -8 -15 -2 -15 5 0 12 7 16 15 3 8 4 15 2 15 -2 0
-9 -7 -16 -15z"/>
<path d="M555 3450 c-3 -5 -1 -10 4 -10 6 0 11 5 11 10 0 6 -2 10 -4 10 -3 0
-8 -4 -11 -10z"/>
<path d="M620 3441 c0 -6 5 -11 10 -11 6 0 10 -7 10 -17 0 -14 2 -15 18 -1 9
9 24 18 32 21 8 4 1 6 -15 5 -17 -1 -36 1 -43 5 -6 5 -12 4 -12 -2z"/>
<path d="M3485 3440 c-8 -13 5 -13 25 0 13 8 13 10 -2 10 -9 0 -20 -4 -23 -10z"/>
<path d="M3570 3420 c0 -5 4 -10 9 -10 6 0 13 5 16 10 3 6 -1 10 -9 10 -9 0
-16 -4 -16 -10z"/>
<path d="M3765 3409 c9 -29 6 -25 30 -33 16 -5 20 -1 21 19 1 15 -4 25 -11 25
-7 0 -21 3 -30 7 -14 5 -16 2 -10 -18z"/>
<path d="M575 3410 c3 -5 10 -10 16 -10 5 0 9 5 9 10 0 6 -7 10 -16 10 -8 0
-12 -4 -9 -10z"/>
<path d="M680 3399 c0 -5 5 -7 10 -4 6 3 10 8 10 11 0 2 -4 4 -10 4 -5 0 -10
-5 -10 -11z"/>
<path d="M382 3379 c-15 -24 -13 -32 7 -20 7 5 11 16 9 25 -2 14 -5 13 -16 -5z"/>
<path d="M440 3396 c0 -2 9 -6 20 -9 11 -3 20 -1 20 4 0 5 -9 9 -20 9 -11 0
-20 -2 -20 -4z"/>
<path d="M495 3375 c-3 -11 -11 -28 -16 -38 -6 -11 -8 -21 -5 -24 7 -8 38 57
33 70 -3 7 -8 3 -12 -8z"/>
<path d="M3584 3375 c-19 -14 -18 -14 4 -15 13 0 22 6 22 15 0 19 -1 19 -26 0z"/>
<path d="M3627 3370 c3 -11 7 -20 9 -20 2 0 4 9 4 20 0 11 -4 20 -9 20 -5 0
-7 -9 -4 -20z"/>
<path d="M3746 3382 c-3 -6 -1 -14 5 -17 14 -9 20 -2 10 14 -6 8 -11 9 -15 3z"/>
<path d="M3480 3369 c0 -5 9 -9 20 -9 11 0 20 2 20 4 0 2 -9 6 -20 9 -11 3
-20 1 -20 -4z"/>
<path d="M398 3339 c-20 -34 -23 -49 -9 -49 5 0 12 11 15 25 4 14 11 25 16 25
6 0 10 7 10 15 0 24 -14 17 -32 -16z"/>
<path d="M3585 3330 c-3 -5 -1 -10 4 -10 6 0 11 5 11 10 0 6 -2 10 -4 10 -3 0
-8 -4 -11 -10z"/>
<path d="M3710 3309 c0 -5 5 -7 10 -4 6 3 10 8 10 11 0 2 -4 4 -10 4 -5 0 -10
-5 -10 -11z"/>
<path d="M3635 3299 c-9 -14 -2 -20 14 -10 8 6 9 11 3 15 -6 3 -14 1 -17 -5z"/>
<path d="M505 3290 c-3 -5 -4 -10 -1 -10 2 0 12 -3 20 -6 12 -5 15 -2 10 10
-7 18 -20 21 -29 6z"/>
<path d="M3742 3291 c2 -7 7 -12 11 -12 12 1 9 15 -3 20 -7 2 -11 -2 -8 -8z"/>
<path d="M425 3280 c-25 -11 1 -11 35 0 20 6 21 8 5 8 -11 0 -29 -3 -40 -8z"/>
<path d="M3688 3283 c6 -2 18 -2 25 0 6 3 1 5 -13 5 -14 0 -19 -2 -12 -5z"/>
<path d="M3905 3277 c-19 -10 -19 -27 0 -27 8 0 15 5 15 12 0 8 7 6 18 -5 14
-15 15 -19 3 -26 -8 -6 -9 -11 -3 -15 6 -3 13 -2 17 4 3 5 14 10 24 10 13 0
19 7 19 24 0 21 -6 25 -39 28 -22 2 -46 0 -54 -5z"/>
<path d="M375 3270 c-3 -5 -1 -10 4 -10 6 0 11 5 11 10 0 6 -2 10 -4 10 -3 0
-8 -4 -11 -10z"/>
<path d="M3853 3271 c-19 -5 -20 -8 -7 -25 10 -15 17 -17 25 -9 18 18 7 40
-18 34z"/>
<path d="M407 3243 c-4 -3 -7 -11 -7 -17 0 -6 5 -5 12 2 6 6 9 14 7 17 -3 3
-9 2 -12 -2z"/>
<path d="M3751 3241 c-8 -6 -9 -11 -3 -15 6 -3 14 -1 17 5 9 14 2 20 -14 10z"/>
<path d="M465 3230 c3 -5 8 -10 11 -10 2 0 4 5 4 10 0 6 -5 10 -11 10 -5 0 -7
-4 -4 -10z"/>
<path d="M3680 3225 c0 -8 4 -15 9 -15 5 0 14 7 21 15 10 13 9 15 -9 15 -12 0
-21 -6 -21 -15z"/>
<path d="M343 3223 c-20 -8 -15 -23 7 -23 11 0 20 -4 20 -10 0 -5 4 -10 9 -10
4 0 6 11 3 25 -4 24 -14 29 -39 18z"/>
<path d="M606 3215 c-3 -8 -1 -15 4 -15 6 0 10 7 10 15 0 8 -2 15 -4 15 -2 0
-6 -7 -10 -15z"/>
<path d="M3805 3220 c-3 -5 -15 -10 -27 -10 -18 0 -19 -2 -7 -16 12 -14 14
-14 25 0 6 9 19 16 28 16 10 0 14 5 11 10 -3 6 -10 10 -15 10 -5 0 -12 -4 -15
-10z"/>
<path d="M3880 3217 c0 -10 8 -17 18 -17 9 0 13 4 7 8 -5 4 -13 11 -17 16 -5
5 -8 2 -8 -7z"/>
<path d="M415 3210 c-8 -13 5 -13 25 0 13 8 13 10 -2 10 -9 0 -20 -4 -23 -10z"/>
<path d="M3977 3193 c-10 -9 -9 -23 2 -23 5 0 11 7 15 15 5 15 -5 20 -17 8z"/>
<path d="M3880 3180 c-12 -8 -11 -10 8 -10 12 0 22 5 22 10 0 13 -11 13 -30 0z"/>
<path d="M3930 3183 c0 -5 4 -15 10 -23 11 -18 25 -7 17 15 -6 15 -27 21 -27
8z"/>
<path d="M161 3162 c0 -7 -8 -20 -16 -28 -17 -17 -20 -44 -5 -44 6 0 10 6 10
14 0 8 5 16 11 18 6 2 9 15 6 28 -2 14 -5 19 -6 12z"/>
<path d="M210 3160 c0 -5 5 -10 10 -10 6 0 10 5 10 10 0 6 -4 10 -10 10 -5 0
-10 -4 -10 -10z"/>
<path d="M3760 3159 c0 -5 5 -7 10 -4 6 3 10 8 10 11 0 2 -4 4 -10 4 -5 0 -10
-5 -10 -11z"/>
<path d="M3825 3160 c3 -5 8 -10 11 -10 2 0 4 5 4 10 0 6 -5 10 -11 10 -5 0
-7 -4 -4 -10z"/>
<path d="M270 3144 c0 -10 -6 -14 -14 -11 -14 6 -32 -21 -21 -31 3 -3 5 0 5 6
0 7 8 12 19 12 10 0 21 9 24 20 3 11 1 20 -4 20 -5 0 -9 -7 -9 -16z"/>
<path d="M310 3145 c0 -7 -9 -20 -20 -30 -11 -10 -20 -23 -20 -28 0 -6 8 -3
18 5 9 9 28 19 42 23 24 7 40 22 40 37 0 4 -13 6 -30 6 -16 -1 -30 -6 -30 -13z
m40 -4 c0 -5 -7 -12 -16 -15 -14 -5 -15 -4 -4 9 14 17 20 19 20 6z"/>
<path d="M3 3135 c-3 -9 -3 -18 0 -22 10 -10 37 6 37 22 0 20 -29 20 -37 0z"/>
<path d="M190 3130 c-13 -8 -12 -10 3 -10 9 0 17 5 17 10 0 12 -1 12 -20 0z"/>
<path d="M374 3105 c-10 -8 -14 -15 -7 -15 19 0 43 11 43 21 0 13 -14 11 -36
-6z"/>
<path d="M3951 3104 c0 -11 3 -14 6 -6 3 7 2 16 -1 19 -3 4 -6 -2 -5 -13z"/>
<path d="M70 3108 c-1 -5 -3 -11 -4 -15 -1 -5 -5 -14 -9 -21 -5 -7 -2 -14 8
-18 11 -5 13 -10 5 -19 -8 -10 -7 -13 4 -11 23 3 30 14 18 28 -5 7 -12 24 -15
38 -2 14 -5 22 -7 18z"/>
<path d="M3875 3090 c-19 -8 -19 -9 3 -9 12 -1 22 4 22 9 0 6 -1 10 -2 9 -2 0
-12 -4 -23 -9z"/>
<path d="M180 3080 c-12 -7 -12 -12 0 -35 14 -27 40 -30 48 -6 3 10 -1 12 -17
8 -18 -4 -20 -2 -15 19 7 27 6 28 -16 14z"/>
<path d="M12 3068 c-21 -21 -14 -40 8 -21 21 18 26 33 12 33 -4 0 -13 -5 -20
-12z"/>
<path d="M320 3065 c0 -8 5 -15 10 -15 6 0 10 4 10 9 0 5 8 12 18 14 10 3 6 5
-10 6 -19 1 -28 -4 -28 -14z"/>
<path d="M110 3053 c0 -15 2 -16 10 -3 6 10 10 11 10 3 0 -7 5 -13 11 -13 8 0
8 5 -1 15 -17 20 -30 19 -30 -2z"/>
<path d="M405 3060 c3 -5 11 -10 16 -10 6 0 7 5 4 10 -3 6 -11 10 -16 10 -6 0
-7 -4 -4 -10z"/>
<path d="M2370 3049 c-7 -12 -18 -18 -26 -15 -8 3 -13 2 -10 -3 3 -4 -3 -17
-12 -27 -10 -10 -16 -27 -14 -37 2 -12 -4 -20 -17 -24 -12 -3 -21 -11 -21 -18
0 -21 -56 -125 -64 -118 -4 4 -4 1 -1 -8 3 -8 -5 -26 -17 -39 -13 -14 -23 -27
-22 -30 3 -16 -10 -40 -22 -40 -8 0 -14 -10 -14 -25 0 -14 -8 -33 -18 -43 -10
-10 -24 -32 -31 -50 -7 -18 -20 -32 -27 -32 -8 0 -14 -9 -14 -19 0 -11 -9 -23
-20 -26 -11 -4 -20 -15 -20 -26 0 -25 -27 -79 -40 -79 -6 0 -10 -7 -10 -16 0
-9 -9 -27 -20 -41 -11 -14 -20 -32 -20 -39 0 -8 -4 -14 -10 -14 -5 0 -10 -9
-10 -19 0 -11 -10 -28 -22 -38 -13 -10 -36 -43 -52 -73 -16 -30 -35 -59 -43
-63 -7 -4 -13 -21 -13 -37 0 -24 -4 -30 -22 -30 -17 0 -19 -3 -9 -9 7 -5 10
-14 7 -20 -4 -6 -12 -9 -17 -6 -5 4 -9 -3 -9 -14 0 -12 -5 -20 -11 -18 -6 1
-13 -5 -14 -13 -6 -32 -35 -90 -45 -90 -6 0 -8 -4 -5 -10 3 -5 -3 -15 -15 -22
-11 -7 -20 -19 -20 -26 0 -8 -13 -37 -29 -66 -31 -56 -39 -90 -47 -204 -4 -49
-2 -77 6 -87 13 -16 12 -150 -1 -177 -7 -12 -4 -17 8 -20 9 -2 -62 -2 -158 0
-233 5 -222 -6 -229 211 -3 88 -8 162 -11 165 -10 10 -39 -5 -39 -19 0 -7 -6
-17 -13 -23 -9 -8 -11 -29 -5 -84 13 -133 18 -166 32 -206 8 -22 12 -43 9 -46
-4 -3 2 -6 13 -6 10 0 32 -11 48 -25 16 -14 33 -25 38 -25 13 0 6 -51 -9 -75
-17 -26 -17 -65 1 -65 8 0 17 12 21 28 17 67 47 122 69 123 11 0 42 2 68 4 26
2 50 0 52 -4 8 -12 58 -1 80 18 13 11 20 13 23 4 2 -7 11 -9 20 -6 11 4 14 2
9 -5 -5 -8 -2 -10 9 -6 8 4 22 1 30 -6 9 -8 15 -9 15 -2 0 6 15 12 33 14 50 5
42 32 -10 36 l-42 3 -3 184 c-2 147 0 186 10 190 8 3 62 5 122 5 83 0 109 3
113 14 7 19 -34 26 -144 26 -97 0 -105 6 -71 51 10 13 22 31 25 39 4 8 20 38
37 65 16 28 47 79 67 113 21 35 46 76 55 90 10 15 27 43 38 62 11 19 32 53 45
75 13 22 28 47 32 55 7 13 50 84 130 218 13 20 39 66 59 102 21 36 40 67 43
70 3 3 12 16 20 30 77 133 96 165 103 168 4 2 8 8 8 14 0 5 27 55 60 110 78
126 86 148 60 148 -11 0 -24 -9 -30 -21z"/>
<path d="M3980 3044 c0 -14 -3 -14 -15 -4 -13 11 -18 10 -30 -6 -15 -20 -20
-49 -7 -42 4 3 22 11 40 18 32 14 41 33 22 45 -5 3 -10 -1 -10 -11z"/>
<path d="M20 3010 c0 -5 5 -10 10 -10 6 0 10 5 10 10 0 6 -4 10 -10 10 -5 0
-10 -4 -10 -10z"/>
<path d="M0 2982 c0 -14 6 -22 16 -22 14 0 15 3 3 18 -7 9 -15 19 -16 21 -2 2
-3 -5 -3 -17z"/>
<path d="M360 2990 c0 -5 4 -10 9 -10 6 0 13 5 16 10 3 6 -1 10 -9 10 -9 0
-16 -4 -16 -10z"/>
<path d="M3976 2992 c-3 -6 0 -13 6 -16 10 -5 10 -7 1 -12 -7 -3 -13 -15 -13
-26 0 -30 24 -16 28 16 4 30 -11 55 -22 38z"/>
<path d="M52 2970 c-8 -13 -8 -20 -2 -20 6 0 13 7 17 15 9 24 -1 27 -15 5z"/>
<path d="M3902 2971 c2 -7 7 -12 11 -12 12 1 9 15 -3 20 -7 2 -11 -2 -8 -8z"/>
<path d="M92 2948 c-7 -9 -6 -17 4 -26 12 -11 14 -9 14 13 0 28 -3 30 -18 13z"/>
<path d="M3761 2944 c0 -11 3 -14 6 -6 3 7 2 16 -1 19 -3 4 -6 -2 -5 -13z"/>
<path d="M0 2939 c0 -5 5 -7 10 -4 5 3 10 8 10 11 0 2 -4 4 -10 4 -5 0 -10 -5
-10 -11z"/>
<path d="M3920 2935 c-20 -24 -6 -28 15 -5 10 11 13 20 8 20 -6 0 -16 -7 -23
-15z"/>
<path d="M15 2916 c-17 -13 -18 -18 -8 -35 8 -13 9 -22 3 -26 -6 -3 -10 -17
-10 -31 0 -21 3 -24 23 -19 l22 6 -22 -20 c-13 -10 -23 -27 -22 -38 0 -10 3
-13 6 -5 8 21 21 13 19 -13 0 -14 -7 -25 -13 -25 -8 0 -13 -13 -13 -31 0 -27
3 -30 23 -24 12 4 31 15 41 26 19 18 19 18 -5 12 -13 -3 -27 -11 -31 -17 -4
-6 -10 -7 -14 -3 -8 8 35 46 54 47 6 0 11 10 11 23 -1 16 -2 18 -6 5 -6 -24
-19 -23 -26 3 -11 42 22 66 51 37 6 -6 15 -8 19 -4 5 4 0 14 -11 21 -10 8 -15
18 -11 24 8 14 -8 14 -21 1 -12 -12 -44 -3 -44 11 0 5 9 9 20 9 11 0 20 4 20
10 0 5 13 7 30 4 19 -4 30 -2 30 5 0 6 -9 11 -20 11 -11 0 -23 7 -26 15 -7 17
-34 21 -34 5 0 -5 7 -10 16 -10 8 0 12 -4 9 -10 -13 -21 -34 -9 -37 21 -3 28
-4 29 -23 15z"/>
<path d="M368 2923 c6 -2 18 -2 25 0 6 3 1 5 -13 5 -14 0 -19 -2 -12 -5z"/>
<path d="M3935 2893 c-5 -10 -9 -27 -11 -38 -1 -11 0 -14 2 -7 3 6 12 12 20
12 8 0 14 10 14 25 0 29 -14 33 -25 8z"/>
<path d="M139 2887 c7 -7 14 -8 21 -1 6 6 2 10 -12 11 -16 2 -18 -1 -9 -10z"/>
<path d="M3871 2874 c0 -11 3 -14 6 -6 3 7 2 16 -1 19 -3 4 -6 -2 -5 -13z"/>
<path d="M200 2859 c0 -5 5 -7 10 -4 6 3 10 8 10 11 0 2 -4 4 -10 4 -5 0 -10
-5 -10 -11z"/>
<path d="M275 2860 c-3 -5 1 -10 9 -10 9 0 16 5 16 10 0 6 -4 10 -9 10 -6 0
-13 -4 -16 -10z"/>
<path d="M2557 2843 c-13 -13 -7 -21 13 -16 11 3 27 0 35 -7 9 -7 52 -14 103
-15 48 -2 94 -6 103 -10 8 -3 27 -1 41 4 14 5 28 8 30 5 10 -9 198 -12 198 -3
0 5 5 9 11 9 5 0 7 -5 4 -10 -4 -6 10 -2 29 7 20 10 34 23 32 28 -3 11 -588
20 -599 8z"/>
<path d="M3854 2826 c-10 -8 -16 -18 -11 -22 4 -4 7 -2 7 4 0 7 7 12 15 12 8
0 15 5 15 10 0 13 -3 13 -26 -4z"/>
<path d="M3946 2804 c-19 -18 -21 -40 -5 -50 7 -4 9 0 5 14 -5 15 -2 22 14 27
11 3 20 11 20 16 0 14 -17 11 -34 -7z"/>
<path d="M3960 2775 c0 -2 9 -9 20 -15 16 -9 20 -8 20 5 0 8 -9 15 -20 15 -11
0 -20 -2 -20 -5z"/>
<path d="M113 2763 c-18 -7 -16 -23 2 -23 8 0 15 7 15 15 0 8 -1 15 -2 14 -2
0 -9 -3 -15 -6z"/>
<path d="M3883 2763 c9 -2 23 -2 30 0 6 3 -1 5 -18 5 -16 0 -22 -2 -12 -5z"/>
<path d="M3800 2749 c0 -5 5 -7 10 -4 6 3 10 8 10 11 0 2 -4 4 -10 4 -5 0 -10
-5 -10 -11z"/>
<path d="M240 2730 c0 -5 5 -10 11 -10 5 0 7 5 4 10 -3 6 -8 10 -11 10 -2 0
-4 -4 -4 -10z"/>
<path d="M3735 2730 c-3 -5 1 -10 9 -10 9 0 16 5 16 10 0 6 -4 10 -9 10 -6 0
-13 -4 -16 -10z"/>
<path d="M3920 2730 c0 -5 7 -10 16 -10 8 0 12 5 9 10 -3 6 -10 10 -16 10 -5
0 -9 -4 -9 -10z"/>
<path d="M3890 2690 c0 -12 8 -12 35 0 18 8 17 9 -7 9 -16 1 -28 -3 -28 -9z"/>
<path d="M3975 2670 c3 -5 11 -10 16 -10 6 0 7 5 4 10 -3 6 -11 10 -16 10 -6
0 -7 -4 -4 -10z"/>
<path d="M3940 2659 c0 -5 5 -7 10 -4 6 3 10 8 10 11 0 2 -4 4 -10 4 -5 0 -10
-5 -10 -11z"/>
<path d="M73 2655 c4 -5 -3 -20 -15 -33 -19 -21 -20 -24 -5 -19 10 4 30 7 43
7 15 0 24 6 24 16 0 11 -6 14 -21 9 -14 -5 -19 -3 -15 3 3 6 1 14 -6 18 -7 4
-10 3 -5 -1z"/>
<path d="M2429 2628 c-7 -13 -21 -39 -32 -58 -47 -83 -47 -83 -32 -100 8 -9
15 -22 15 -28 0 -7 10 -29 23 -50 13 -20 34 -59 47 -87 13 -27 29 -53 36 -57
6 -4 15 -19 18 -33 4 -14 11 -25 16 -25 6 0 10 -6 10 -14 0 -19 32 -79 48 -89
6 -4 12 -13 12 -19 0 -6 11 -26 25 -44 14 -18 25 -40 25 -48 0 -9 5 -16 10
-16 6 0 10 -6 10 -13 0 -7 9 -23 20 -35 11 -12 20 -28 20 -36 0 -8 5 -18 10
-21 6 -3 10 -14 10 -24 0 -10 9 -26 20 -36 11 -10 20 -24 20 -30 0 -7 6 -18
14 -24 8 -7 17 -23 20 -37 8 -30 56 -79 87 -89 17 -6 19 -9 8 -16 -10 -6 -8
-9 9 -9 12 0 22 -2 22 -5 0 -8 -102 -219 -109 -225 -3 -3 -12 -17 -20 -33 -8
-15 -27 -41 -42 -58 l-27 -31 21 -21 c27 -27 103 -39 138 -21 15 7 30 10 34 6
5 -4 5 -2 1 5 -13 23 88 61 111 42 7 -6 48 -12 90 -13 70 -1 78 -3 75 -20 -2
-11 1 -15 7 -11 6 3 27 -6 46 -21 19 -14 35 -22 35 -17 0 5 9 9 20 9 13 0 19
-5 16 -13 -10 -25 24 -12 38 15 8 15 18 25 23 22 4 -3 9 5 11 18 3 20 -1 22
-45 22 -43 0 -51 4 -76 35 l-28 35 -137 0 -137 0 -23 -35 c-22 -34 -23 -35
-92 -35 -39 0 -70 3 -70 6 0 6 35 58 53 79 9 10 76 105 148 208 25 37 54 64
77 75 78 36 59 50 -69 51 l-87 1 -58 102 c-33 56 -68 116 -79 134 -23 36 -122
206 -175 298 -19 34 -42 72 -51 86 -9 14 -45 74 -79 133 -64 113 -69 138 -35
177 14 17 29 60 21 60 -3 0 -11 -10 -17 -22z"/>
<path d="M3950 2626 c0 -8 -6 -17 -12 -19 -8 -3 -6 -6 5 -6 9 -1 17 1 17 3 0
2 3 11 6 20 3 9 1 16 -5 16 -6 0 -11 -6 -11 -14z"/>
<path d="M0 2609 c0 -5 5 -7 10 -4 5 3 10 8 10 11 0 2 -4 4 -10 4 -5 0 -10 -5
-10 -11z"/>
<path d="M16 2588 c-4 -9 -4 -22 0 -29 4 -7 3 -9 -3 -6 -6 4 -10 -16 -11 -49
-1 -48 1 -54 13 -44 12 10 15 9 15 -4 0 -9 -5 -16 -11 -16 -20 0 -3 -25 18
-26 11 -1 25 -4 32 -8 7 -5 11 2 11 19 0 18 9 31 33 45 17 11 27 20 20 20 -6
0 -18 3 -26 6 -10 3 -18 -2 -22 -15 -9 -30 -28 -26 -23 4 3 14 1 28 -3 31 -5
3 -9 -2 -9 -10 0 -9 -7 -16 -15 -16 -19 0 -19 5 1 36 12 18 20 22 29 14 13
-11 45 -4 45 11 0 4 -9 13 -20 19 -14 7 -20 7 -20 0 0 -21 -39 -10 -43 13 -3
19 -5 20 -11 5z"/>
<path d="M136 2591 c-19 -7 -19 -8 2 -13 15 -4 22 -2 22 8 0 8 -1 14 -2 13 -2
0 -12 -4 -22 -8z"/>
<path d="M3970 2575 c0 -8 4 -15 9 -15 5 0 11 7 15 15 3 9 0 15 -9 15 -8 0
-15 -7 -15 -15z"/>
<path d="M215 2560 c-16 -7 -17 -9 -3 -9 9 -1 20 4 23 9 7 11 7 11 -20 0z"/>
<path d="M248 2523 c7 -3 16 -2 19 1 4 3 -2 6 -13 5 -11 0 -14 -3 -6 -6z"/>
<path d="M3900 2495 c-8 -9 -8 -15 -2 -15 12 0 26 19 19 26 -2 2 -10 -2 -17
-11z"/>
<path d="M3985 2470 c-3 -5 -1 -10 4 -10 6 0 11 5 11 10 0 6 -2 10 -4 10 -3 0
-8 -4 -11 -10z"/>
<path d="M120 2449 c-7 -11 -10 -23 -7 -25 6 -6 37 25 37 37 0 17 -19 9 -30
-12z"/>
<path d="M265 2450 c-3 -5 -1 -10 4 -10 6 0 11 5 11 10 0 6 -2 10 -4 10 -3 0
-8 -4 -11 -10z"/>
<path d="M3940 2450 c0 -5 5 -10 10 -10 6 0 10 5 10 10 0 6 -4 10 -10 10 -5 0
-10 -4 -10 -10z"/>
<path d="M180 2439 c0 -5 5 -7 10 -4 6 3 10 8 10 11 0 2 -4 4 -10 4 -5 0 -10
-5 -10 -11z"/>
<path d="M3858 2443 c7 -3 16 -2 19 1 4 3 -2 6 -13 5 -11 0 -14 -3 -6 -6z"/>
<path d="M281 2414 c0 -11 3 -14 6 -6 3 7 2 16 -1 19 -3 4 -6 -2 -5 -13z"/>
<path d="M3976 2414 c-8 -20 -4 -25 11 -16 7 4 9 13 4 21 -6 10 -10 9 -15 -5z"/>
<path d="M3930 2410 c0 -5 5 -10 10 -10 6 0 10 5 10 10 0 6 -4 10 -10 10 -5 0
-10 -4 -10 -10z"/>
<path d="M3818 2403 c7 -3 16 -2 19 1 4 3 -2 6 -13 5 -11 0 -14 -3 -6 -6z"/>
<path d="M2 2355 c-3 -48 -3 -48 23 -39 13 6 14 9 3 16 -9 7 -8 8 6 4 21 -7
46 9 46 31 0 10 -4 11 -19 3 -25 -13 -41 -13 -41 0 0 6 7 10 15 10 8 0 15 5
15 10 0 6 -10 10 -22 10 -20 0 -23 -6 -26 -45z"/>
<path d="M135 2370 c-3 -5 -1 -10 4 -10 6 0 11 5 11 10 0 6 -2 10 -4 10 -3 0
-8 -4 -11 -10z"/>
<path d="M255 2360 c3 -5 8 -10 11 -10 2 0 4 5 4 10 0 6 -5 10 -11 10 -5 0 -7
-4 -4 -10z"/>
<path d="M2841 2341 c62 -20 104 -28 149 -27 45 2 67 -2 78 -13 11 -12 16 -13
20 -3 4 13 34 16 46 5 11 -11 59 -12 79 -1 12 6 17 5 15 -3 -4 -16 92 -15 102
1 5 8 12 7 23 -4 8 -9 29 -16 46 -16 17 0 31 -5 31 -11 0 -5 5 -7 10 -4 8 5 7
12 -2 22 -11 13 -5 15 45 10 50 -4 60 -2 72 16 8 11 20 17 29 14 13 -5 26 11
26 34 0 5 -174 9 -427 8 l-428 0 86 -28z"/>
<path d="M330 2350 c0 -5 5 -10 11 -10 5 0 7 5 4 10 -3 6 -8 10 -11 10 -2 0
-4 -4 -4 -10z"/>
<path d="M159 2308 c-3 -22 -1 -34 4 -29 5 5 7 21 5 37 -3 27 -4 26 -9 -8z"/>
<path d="M3865 2320 c3 -5 8 -10 11 -10 2 0 4 5 4 10 0 6 -5 10 -11 10 -5 0
-7 -4 -4 -10z"/>
<path d="M3956 2323 c-11 -11 -6 -23 9 -23 8 0 15 4 15 9 0 13 -16 22 -24 14z"/>
<path d="M71 2304 c0 -11 3 -14 6 -6 3 7 2 16 -1 19 -3 4 -6 -2 -5 -13z"/>
<path d="M3895 2310 c4 -6 11 -8 16 -5 14 9 11 15 -7 15 -8 0 -12 -5 -9 -10z"/>
<path d="M22 2290 c-13 -11 -18 -21 -12 -25 5 -3 10 -13 10 -21 0 -8 -4 -12
-10 -9 -5 3 -10 -1 -10 -9 0 -13 3 -13 27 -1 18 10 29 11 34 4 4 -7 8 -6 11 3
3 8 0 22 -7 32 -8 10 -11 24 -8 32 7 19 -8 17 -35 -6z"/>
<path d="M120 2289 c0 -5 5 -7 10 -4 6 3 10 8 10 11 0 2 -4 4 -10 4 -5 0 -10
-5 -10 -11z"/>
<path d="M86 2281 c-5 -8 -3 -17 5 -22 18 -11 26 -11 34 1 3 6 0 10 -9 10 -8
0 -16 5 -18 12 -3 9 -6 9 -12 -1z"/>
<path d="M170 2250 c-12 -8 -10 -10 8 -10 13 0 20 4 17 10 -7 12 -6 12 -25 0z"/>
<path d="M3940 2249 c0 -5 5 -7 10 -4 6 3 10 8 10 11 0 2 -4 4 -10 4 -5 0 -10
-5 -10 -11z"/>
<path d="M110 2214 c-11 -12 -10 -18 3 -32 16 -15 18 -15 35 2 16 18 16 18 0
13 -24 -8 -32 9 -11 22 16 9 16 10 2 11 -9 0 -22 -7 -29 -16z"/>
<path d="M192 2200 c0 -14 2 -19 5 -12 2 6 2 18 0 25 -3 6 -5 1 -5 -13z"/>
<path d="M240 2215 c0 -15 18 -40 24 -34 3 3 -1 14 -9 25 -8 10 -14 15 -15 9z"/>
<path d="M6 2191 c-10 -15 -5 -240 5 -246 5 -4 13 5 19 19 11 30 14 31 34 10
15 -14 16 -13 16 6 0 13 -8 24 -20 27 -14 4 -20 14 -20 34 0 21 -4 27 -15 23
-10 -4 -15 0 -15 15 0 24 10 27 28 9 14 -14 17 -11 26 20 5 13 3 22 -3 22 -6
0 -11 -5 -11 -11 0 -5 -4 -7 -10 -4 -13 8 -12 16 5 39 13 17 17 17 31 5 16
-13 16 -12 6 8 -17 32 -30 36 -37 13 -3 -11 -13 -20 -21 -20 -18 0 -18 5 2 24
13 14 14 16 0 16 -8 0 -17 -4 -20 -9z"/>
<path d="M3960 2184 c0 -6 -16 -17 -35 -24 -38 -15 -67 -40 -46 -40 6 0 11 4
11 9 0 4 11 6 25 3 16 -3 25 0 25 8 0 7 8 19 17 26 10 7 15 16 10 20 -4 4 -7
3 -7 -2z"/>
<path d="M3841 2164 c0 -11 3 -14 6 -6 3 7 2 16 -1 19 -3 4 -6 -2 -5 -13z"/>
<path d="M103 2135 c-13 -13 -23 -31 -23 -40 0 -8 -4 -15 -10 -15 -5 0 -10 -8
-10 -18 0 -10 7 -19 15 -19 8 0 12 4 9 8 -2 4 4 12 13 18 10 6 12 11 6 11 -20
0 -16 13 16 48 17 17 25 32 18 31 -7 0 -22 -11 -34 -24z"/>
<path d="M165 2110 c3 -5 10 -10 16 -10 5 0 9 5 9 10 0 6 -7 10 -16 10 -8 0
-12 -4 -9 -10z"/>
<path d="M3880 2075 c-20 -24 -6 -28 15 -5 10 11 13 20 8 20 -6 0 -16 -7 -23
-15z"/>
<path d="M3935 2080 c-3 -5 -2 -10 4 -10 5 0 13 5 16 10 3 6 2 10 -4 10 -5 0
-13 -4 -16 -10z"/>
<path d="M140 2050 c-13 -8 -12 -10 3 -10 9 0 17 5 17 10 0 12 -1 12 -20 0z"/>
<path d="M210 2019 c0 -5 5 -7 10 -4 6 3 10 8 10 11 0 2 -4 4 -10 4 -5 0 -10
-5 -10 -11z"/>
<path d="M115 2000 c-4 -6 7 -10 27 -9 27 0 30 2 13 9 -27 12 -33 12 -40 0z"/>
<path d="M3961 1984 c0 -11 3 -14 6 -6 3 7 2 16 -1 19 -3 4 -6 -2 -5 -13z"/>
<path d="M90 1965 c0 -8 -4 -15 -10 -15 -5 0 -10 -5 -10 -11 0 -5 4 -8 10 -4
17 10 57 -6 68 -28 l11 -22 0 23 c1 13 -11 34 -25 47 -31 29 -44 31 -44 10z"/>
<path d="M40 1936 c0 -9 -7 -16 -15 -16 -8 0 -15 -4 -15 -9 0 -5 -3 -17 -6
-25 -5 -12 -2 -15 12 -10 16 6 17 5 7 -7 -18 -18 -16 -36 3 -43 12 -5 15 -2
10 11 -5 16 -5 16 6 2 15 -18 74 -36 63 -19 -3 6 3 10 14 10 26 0 27 -12 3
-34 -17 -14 -22 -15 -46 -3 -48 25 -96 1 -64 -31 8 -8 9 -12 1 -12 -7 0 -11
-19 -10 -47 0 -27 2 -42 4 -35 3 6 11 12 19 12 8 0 14 5 14 10 0 6 -4 10 -10
10 -5 0 -10 7 -10 16 0 8 5 12 10 9 9 -6 14 6 11 30 0 6 15 9 37 7 29 -2 43 2
65 23 17 16 26 33 23 42 -3 8 -6 16 -6 17 0 2 -11 1 -25 -2 -28 -5 -47 24 -25
38 7 4 9 13 6 19 -11 17 -23 13 -29 -9 -3 -11 -13 -20 -22 -20 -9 0 -13 5 -10
10 3 6 2 10 -4 10 -7 0 -7 8 -1 25 6 15 6 26 0 30 -6 4 -10 -1 -10 -9z"/>
<path d="M200 1936 c0 -9 5 -16 10 -16 6 0 10 4 10 9 0 6 -4 13 -10 16 -5 3
-10 -1 -10 -9z"/>
<path d="M395 1929 c-4 -6 -5 -12 -2 -15 2 -3 7 2 10 11 7 17 1 20 -8 4z"/>
<path d="M236 1895 c-9 -26 -7 -32 5 -12 6 10 9 21 6 23 -2 3 -7 -2 -11 -11z"/>
<path d="M165 1871 c-6 -11 9 -23 19 -14 9 9 7 23 -3 23 -6 0 -12 -4 -16 -9z"/>
<path d="M207 1834 c6 -15 23 -19 23 -5 0 5 -7 11 -14 14 -10 4 -13 1 -9 -9z"/>
<path d="M3963 1793 c-22 -8 -14 -19 15 -21 15 -1 23 2 17 6 -5 4 -12 10 -15
13 -3 4 -11 4 -17 2z"/>
<path d="M136 1765 c-3 -9 0 -12 9 -9 10 4 15 -4 17 -28 2 -28 7 -34 31 -36
15 -2 27 1 27 6 0 5 -10 9 -22 8 -19 -1 -23 4 -23 25 1 31 -30 57 -39 34z"/>
<path d="M70 1734 c0 -8 5 -12 10 -9 6 3 10 10 10 16 0 5 -4 9 -10 9 -5 0 -10
-7 -10 -16z"/>
<path d="M86 1718 c-16 -50 -16 -67 0 -61 11 4 14 13 10 29 -5 17 -2 24 9 24
8 0 15 5 15 10 0 14 -30 12 -34 -2z"/>
<path d="M50 1710 c0 -5 5 -10 10 -10 6 0 10 5 10 10 0 6 -4 10 -10 10 -5 0
-10 -4 -10 -10z"/>
<path d="M115 1700 c-3 -5 5 -12 19 -16 15 -3 23 -11 20 -19 -3 -7 -1 -15 4
-19 13 -8 8 30 -7 48 -15 18 -27 20 -36 6z"/>
<path d="M3957 1689 c-4 -16 -3 -18 9 -8 16 13 19 29 5 29 -5 0 -11 -9 -14
-21z"/>
<path d="M0 1635 c0 -5 4 -16 9 -24 6 -10 10 -10 16 -1 4 7 17 9 31 6 28 -7
33 8 7 19 -28 12 -63 12 -63 0z"/>
<path d="M658 1623 c-7 -9 -29 -26 -50 -39 -49 -31 -78 -63 -71 -80 5 -14 -12
-20 -20 -6 -2 4 -3 2 -1 -4 1 -6 -2 -17 -7 -25 -6 -10 -9 -10 -9 -1 0 6 -4 12
-10 12 -5 0 -7 -7 -4 -14 4 -10 -7 -20 -33 -31 -36 -16 -37 -17 -15 -26 29
-11 28 -15 -7 -33 -16 -9 -38 -31 -49 -50 -12 -20 -30 -36 -44 -38 -12 -2 -23
-10 -24 -18 -1 -10 0 -11 3 -2 3 9 13 12 31 7 35 -9 40 -14 22 -25 -12 -8 -13
-13 -3 -29 11 -17 10 -19 -3 -14 -8 3 -14 1 -12 -5 2 -6 -13 -24 -32 -41 -22
-19 -29 -30 -20 -31 8 0 22 -4 30 -10 22 -14 -22 -48 -57 -44 -16 2 -20 1 -11
-2 10 -3 18 -10 18 -15 0 -5 10 -9 23 -9 17 0 19 -2 7 -10 -12 -7 -11 -12 5
-30 19 -22 19 -22 0 -36 -17 -13 -16 -14 18 -14 26 0 39 -6 47 -20 6 -11 16
-17 25 -14 9 4 15 0 15 -8 0 -9 -20 -20 -47 -29 -49 -15 -70 -39 -34 -39 13 0
21 6 21 18 0 13 2 14 9 3 7 -10 14 -8 35 10 14 12 26 29 26 36 0 15 16 17 25
3 3 -5 12 -10 18 -10 7 0 4 7 -7 15 -22 17 -13 35 18 35 15 0 26 7 29 20 5 21
-7 28 -18 10 -5 -8 -11 -8 -20 0 -9 7 -16 6 -25 -5 -26 -32 -28 -13 -21 178 1
26 3 27 51 27 49 0 100 16 100 32 0 13 48 9 53 -4 3 -7 6 -4 6 7 1 19 7 20
108 20 72 -1 108 -5 111 -13 2 -7 -1 -12 -7 -12 -6 0 -11 -5 -11 -11 0 -7 9
-9 23 -6 21 6 21 5 3 -8 -10 -8 -16 -21 -13 -29 3 -8 1 -16 -5 -18 -6 -2 -13
-32 -16 -66 -4 -54 -8 -66 -34 -87 -68 -57 -168 -16 -183 75 -6 34 -3 47 16
75 13 19 33 38 44 43 18 9 17 10 -7 8 -16 0 -28 -5 -28 -10 0 -6 -5 -5 -12 2
-16 16 -28 15 -28 -3 0 -8 -4 -15 -8 -15 -5 0 -8 -10 -8 -22 1 -17 -5 -24 -21
-26 -13 -2 -23 1 -23 7 0 6 5 11 10 11 6 0 10 5 10 10 0 6 -25 10 -55 10 -57
0 -62 -5 -45 -45 7 -16 9 -17 9 -3 1 24 51 28 74 6 9 -10 17 -27 17 -38 0 -19
-4 -20 -56 -14 l-55 7 7 -29 c9 -37 12 -40 26 -26 15 15 55 16 63 2 4 -6 11
-8 16 -5 5 4 9 1 9 -4 0 -6 -8 -11 -17 -12 -13 0 -11 -3 7 -12 14 -6 27 -14
30 -18 3 -3 12 -9 20 -12 12 -4 11 -6 -2 -6 -19 -1 -25 -35 -8 -46 13 -8 61 5
54 16 -3 5 0 9 5 9 6 0 12 -10 12 -22 1 -17 2 -19 6 -5 3 11 15 17 36 17 25 0
40 10 66 40 35 40 61 52 61 28 0 -23 48 -71 65 -65 8 4 15 11 15 16 0 17 41
24 53 9 10 -13 17 -12 47 3 29 15 31 18 13 19 -12 0 -24 8 -28 19 -8 27 -51
71 -70 71 -11 0 -15 -11 -15 -46 0 -32 -4 -44 -12 -42 -9 3 -14 37 -16 111
l-3 107 64 0 c62 0 87 11 87 37 0 9 -15 13 -44 13 -38 0 -47 4 -70 35 l-27 35
-132 0 c-73 0 -138 -4 -145 -9 -8 -4 -19 -19 -26 -32 -10 -22 -19 -24 -84 -27
-39 -2 -72 -1 -72 2 0 5 35 57 99 146 22 30 60 84 84 120 25 36 54 74 66 84
12 11 21 22 21 26 0 16 -40 17 -52 3z m-31 -379 c-3 -3 -12 -4 -19 -1 -8 3 -5
6 6 6 11 1 17 -2 13 -5z m-285 -96 c-6 -6 -15 -8 -19 -4 -4 4 -1 11 7 16 19
12 27 3 12 -12z m288 -218 c0 -5 -4 -10 -10 -10 -5 0 -10 5 -10 10 0 6 5 10
10 10 6 0 10 -4 10 -10z"/>
<path d="M146 1613 c-6 -14 -5 -15 5 -6 7 7 10 15 7 18 -3 3 -9 -2 -12 -12z"/>
<path d="M3980 1621 c0 -6 5 -13 10 -16 6 -3 10 1 10 9 0 9 -4 16 -10 16 -5 0
-10 -4 -10 -9z"/>
<path d="M85 1599 c-11 -17 1 -21 15 -4 8 9 8 15 2 15 -6 0 -14 -5 -17 -11z"/>
<path d="M2173 1573 c-7 -15 -13 -33 -13 -40 0 -7 -4 -13 -8 -13 -5 0 -9 -15
-9 -32 -1 -18 -3 -44 -6 -58 -2 -14 -5 -33 -6 -43 0 -10 -5 -15 -11 -12 -5 3
-27 -3 -49 -15 -36 -18 -59 -20 -206 -20 -154 0 -196 -7 -142 -25 30 -10 45
-13 90 -19 21 -2 51 -7 67 -11 17 -4 30 -3 30 2 0 4 26 9 57 10 32 1 59 7 61
13 2 5 10 10 18 10 8 0 24 10 35 21 17 17 23 19 30 8 13 -20 11 -27 -8 -32
-17 -4 -17 -5 0 -6 13 -1 17 -10 17 -40 0 -57 37 -85 100 -76 25 4 49 9 54 13
14 8 -25 32 -54 32 l-27 0 -7 143 c-6 118 -4 149 9 180 12 28 12 37 3 37 -7 0
-19 -12 -25 -27z"/>
<path d="M3930 1589 c0 -5 5 -7 10 -4 6 3 10 8 10 11 0 2 -4 4 -10 4 -5 0 -10
-5 -10 -11z"/>
<path d="M30 1575 c-14 -16 -3 -20 19 -6 8 5 9 11 3 15 -5 3 -15 -1 -22 -9z"/>
<path d="M157 1573 c-4 -3 -7 -13 -7 -22 1 -13 3 -13 11 2 11 19 8 33 -4 20z"/>
<path d="M50 1540 c0 -5 5 -10 11 -10 5 0 7 5 4 10 -3 6 -8 10 -11 10 -2 0 -4
-4 -4 -10z"/>
<path d="M3930 1539 c0 -5 5 -7 10 -4 6 3 10 8 10 11 0 2 -4 4 -10 4 -5 0 -10
-5 -10 -11z"/>
<path d="M0 1508 c0 -18 2 -20 10 -8 8 13 12 12 25 -7 9 -13 22 -23 28 -23 8
0 8 3 2 8 -5 4 -15 16 -21 27 -17 30 -44 32 -44 3z"/>
<path d="M100 1510 c0 -5 5 -10 10 -10 6 0 10 5 10 10 0 6 -4 10 -10 10 -5 0
-10 -4 -10 -10z"/>
<path d="M3970 1516 c0 -2 7 -6 15 -10 8 -3 15 -1 15 4 0 6 -7 10 -15 10 -8 0
-15 -2 -15 -4z"/>
<path d="M1742 1502 c-38 -4 -33 -22 7 -22 15 0 32 -5 39 -12 9 -9 12 -9 12 3
0 9 3 10 8 3 4 -6 51 -14 105 -18 l97 -7 0 30 0 31 -117 -2 c-65 -1 -133 -4
-151 -6z"/>
<path d="M2323 1503 c-48 -9 -20 -23 47 -23 40 0 70 4 70 10 0 6 -12 10 -27
10 -16 0 -37 2 -48 4 -11 2 -30 2 -42 -1z"/>
<path d="M3927 1504 c-4 -4 -7 -14 -7 -23 0 -11 3 -12 11 -4 6 6 10 16 7 23
-2 6 -7 8 -11 4z"/>
<path d="M730 1459 c-12 -16 -21 -32 -19 -33 9 -8 109 -17 109 -10 0 12 -50
74 -60 74 -5 0 -18 -14 -30 -31z"/>
<path d="M3071 1455 c-18 -32 -19 -35 -3 -35 9 0 34 -3 55 -6 30 -5 37 -4 37
10 0 9 -4 16 -8 16 -5 0 -15 11 -22 25 -18 34 -34 31 -59 -10z"/>
<path d="M20 1450 c0 -5 5 -10 10 -10 6 0 10 -7 10 -15 0 -8 5 -15 10 -15 6 0
10 5 10 10 0 6 9 10 20 10 11 0 20 -4 20 -10 0 -16 50 -12 66 5 14 13 12 15
-20 9 -27 -4 -38 -1 -42 10 -5 12 -10 13 -32 3 -20 -9 -26 -9 -30 1 -4 14 -22
16 -22 2z"/>
<path d="M260 1449 c0 -5 5 -7 10 -4 6 3 10 8 10 11 0 2 -4 4 -10 4 -5 0 -10
-5 -10 -11z"/>
<path d="M3930 1416 c0 -9 5 -16 10 -16 6 0 10 4 10 9 0 6 -4 13 -10 16 -5 3
-10 -1 -10 -9z"/>
<path d="M50 1390 c0 -5 4 -10 9 -10 6 0 13 5 16 10 3 6 -1 10 -9 10 -9 0 -16
-4 -16 -10z"/>
<path d="M178 1392 c-21 -4 -24 -32 -4 -32 8 0 17 7 20 16 8 20 6 21 -16 16z"/>
<path d="M87 1383 c-10 -9 -9 -33 1 -33 4 0 8 9 9 20 2 21 0 24 -10 13z"/>
<path d="M3960 1374 c0 -8 5 -12 10 -9 6 4 8 11 5 16 -9 14 -15 11 -15 -7z"/>
<path d="M2300 1355 c0 -14 12 -20 34 -16 4 1 14 -3 21 -9 7 -6 47 -12 89 -13
53 -1 76 -6 76 -14 0 -7 4 -13 8 -13 8 0 39 -79 35 -90 -4 -12 106 -8 123 4
25 19 8 36 -37 36 l-39 0 0 65 0 65 -155 0 c-131 0 -155 -2 -155 -15z"/>
<path d="M3930 1354 c0 -9 -5 -12 -11 -8 -7 4 -10 2 -8 -5 7 -19 22 -15 31 8
4 12 3 21 -2 21 -6 0 -10 -7 -10 -16z"/>
<path d="M10 1350 c0 -5 9 -10 21 -10 11 0 17 5 14 10 -3 6 -13 10 -21 10 -8
0 -14 -4 -14 -10z"/>
<path d="M116 1325 c-9 -26 -7 -32 5 -12 6 10 9 21 6 23 -2 3 -7 -2 -11 -11z"/>
<path d="M0 1304 c0 -14 3 -14 15 -4 8 7 15 14 15 16 0 2 -7 4 -15 4 -8 0 -15
-7 -15 -16z"/>
<path d="M180 1309 c0 -5 5 -7 10 -4 6 3 10 8 10 11 0 2 -4 4 -10 4 -5 0 -10
-5 -10 -11z"/>
<path d="M55 1300 c-3 -5 -2 -10 4 -10 5 0 18 -3 28 -7 17 -6 17 -6 1 10 -19
20 -24 21 -33 7z"/>
<path d="M3898 1283 c7 -3 16 -2 19 1 4 3 -2 6 -13 5 -11 0 -14 -3 -6 -6z"/>
<path d="M0 1267 c0 -7 8 -13 18 -12 26 2 30 20 5 23 -15 2 -23 -2 -23 -11z"/>
<path d="M3850 1264 c0 -8 5 -12 10 -9 6 3 10 10 10 16 0 5 -4 9 -10 9 -5 0
-10 -7 -10 -16z"/>
<path d="M3977 1273 c-12 -11 -8 -23 8 -23 8 0 15 7 15 15 0 16 -12 20 -23 8z"/>
<path d="M113 1258 c-28 -14 -30 -28 -3 -28 11 0 20 6 20 14 0 8 8 17 18 19
11 3 12 5 2 5 -8 0 -25 -4 -37 -10z"/>
<path d="M55 1250 c-3 -5 1 -10 9 -10 9 0 16 5 16 10 0 6 -4 10 -9 10 -6 0
-13 -4 -16 -10z"/>
<path d="M12 1208 c-18 -18 -14 -31 6 -24 16 6 16 5 0 -8 -16 -12 -19 -58 -9
-127 1 -9 31 -7 31 2 0 4 -6 10 -12 13 -10 5 -10 7 0 12 16 8 15 31 -2 37 -9
4 -12 14 -9 26 7 27 63 30 64 4 0 -11 3 -13 6 -5 2 7 -11 28 -30 47 -26 26
-37 31 -45 23z"/>
<path d="M3850 1210 c0 -5 7 -7 15 -4 8 4 15 8 15 10 0 2 -7 4 -15 4 -8 0 -15
-4 -15 -10z"/>
<path d="M70 1200 c0 -5 7 -7 15 -4 8 4 15 8 15 10 0 2 -7 4 -15 4 -8 0 -15
-4 -15 -10z"/>
<path d="M3675 1200 c-4 -6 3 -10 14 -10 25 0 27 6 6 13 -8 4 -17 2 -20 -3z"/>
<path d="M3930 1190 c0 -5 7 -10 15 -10 8 0 15 5 15 10 0 6 -7 10 -15 10 -8 0
-15 -4 -15 -10z"/>
<path d="M3956 1174 c-19 -13 -18 -14 15 -14 19 0 30 4 24 8 -5 4 -12 10 -15
14 -3 3 -14 0 -24 -8z"/>
<path d="M1079 1149 c-7 -19 -14 -36 -14 -39 0 -3 -4 -10 -8 -17 -4 -6 -1 -14
5 -17 10 -3 9 -8 -3 -18 -15 -12 -15 -15 -1 -27 13 -13 13 -16 -4 -28 -18 -13
-18 -15 -1 -24 9 -6 17 -16 17 -23 0 -8 15 -17 33 -21 17 -4 38 -9 45 -10 6
-2 12 4 12 14 0 10 8 17 20 17 11 0 20 -4 20 -8 0 -4 9 -8 20 -8 11 0 20 7 20
15 0 11 7 14 24 9 24 -6 24 -5 24 78 0 45 -2 76 -5 68 -3 -8 -17 -38 -29 -67
-13 -28 -24 -57 -24 -62 0 -22 -21 -10 -31 17 -21 56 -44 101 -52 102 -5 0 -7
-28 -6 -62 2 -41 -1 -63 -9 -66 -9 -3 -12 21 -12 85 0 58 -5 95 -13 107 -13
17 -15 16 -28 -15z"/>
<path d="M700 1163 c-16 -7 -40 -28 -40 -37 0 -3 14 -3 32 1 22 4 29 3 24 -5
-5 -8 -1 -10 10 -5 14 5 16 3 10 -12 -3 -10 -2 -21 3 -25 16 -9 -3 -63 -23
-66 -34 -5 -29 -14 7 -14 43 0 77 37 77 85 0 47 -59 93 -100 78z"/>
<path d="M130 1150 c0 -5 5 -10 11 -10 5 0 7 5 4 10 -3 6 -8 10 -11 10 -2 0
-4 -4 -4 -10z"/>
<path d="M920 1146 c0 -11 9 -16 27 -16 14 0 23 -3 19 -7 -4 -4 -15 -8 -23 -8
-28 0 -25 -22 4 -28 40 -8 65 9 61 41 -3 24 -8 27 -45 30 -34 2 -43 0 -43 -12z"/>
<path d="M3921 1139 c-1 -9 -11 -24 -23 -32 l-23 -16 24 0 c23 -1 23 -2 7 -20
-11 -13 -14 -21 -7 -26 13 -7 31 34 24 53 -3 7 3 12 16 12 12 0 21 5 21 10 0
6 -6 10 -14 10 -8 0 -17 6 -19 13 -4 7 -6 6 -6 -4z"/>
<path d="M190 1131 c0 -6 4 -13 10 -16 6 -3 7 1 4 9 -7 18 -14 21 -14 7z"/>
<path d="M3840 1129 c0 -5 11 -9 25 -9 14 0 25 2 25 4 0 2 -11 6 -25 8 -14 3
-25 1 -25 -3z"/>
<path d="M75 1109 c-6 -9 -3 -11 8 -6 9 3 30 2 48 -3 21 -6 29 -6 23 0 -17 17
-71 23 -79 9z"/>
<path d="M485 1110 c-3 -5 1 -10 9 -10 9 0 16 5 16 10 0 6 -4 10 -9 10 -6 0
-13 -4 -16 -10z"/>
<path d="M3808 1103 c7 -3 16 -2 19 1 4 3 -2 6 -13 5 -11 0 -14 -3 -6 -6z"/>
<path d="M3956 1063 c-6 -14 -5 -15 5 -6 7 7 10 15 7 18 -3 3 -9 -2 -12 -12z"/>
<path d="M73 1043 c2 -34 31 -53 41 -27 3 8 -1 14 -10 14 -8 0 -19 10 -24 23
-7 19 -8 18 -7 -10z"/>
<path d="M155 1060 c-3 -5 1 -13 10 -16 22 -9 29 1 11 15 -10 8 -16 9 -21 1z"/>
<path d="M3802 1061 c4 -13 18 -16 19 -4 0 4 -5 9 -11 12 -7 2 -11 -2 -8 -8z"/>
<path d="M1007 1049 c7 -7 15 -10 18 -7 3 3 -2 9 -12 12 -14 6 -15 5 -6 -5z"/>
<path d="M3836 1026 c3 -8 -2 -16 -13 -19 -16 -4 -16 -5 -1 -6 10 0 22 8 28
19 8 16 8 20 -4 20 -9 0 -13 -6 -10 -14z"/>
<path d="M3920 1017 c0 -9 5 -19 10 -22 8 -5 7 -11 -1 -21 -7 -8 -7 -14 -1
-14 5 0 22 16 36 35 20 26 23 35 12 35 -8 0 -18 -5 -21 -10 -5 -8 -11 -7 -21
1 -11 9 -14 8 -14 -4z"/>
<path d="M0 993 c0 -25 1 -26 13 -8 10 12 16 14 21 7 4 -7 16 -12 27 -12 23 0
21 -18 -4 -34 -12 -8 -22 -8 -35 0 -16 10 -18 7 -19 -27 -2 -43 10 -50 29 -19
16 25 35 26 41 3 3 -10 5 -4 4 12 -2 29 -1 30 38 28 25 -2 35 1 27 6 -8 4 -13
12 -12 17 0 5 -7 10 -17 12 -18 3 -52 16 -85 33 -26 13 -28 12 -28 -18z"/>
<path d="M160 1009 c0 -5 9 -9 20 -9 11 0 20 2 20 4 0 2 -9 6 -20 9 -11 3 -20
1 -20 -4z"/>
<path d="M3850 985 c0 -19 32 -36 49 -26 15 10 0 23 -21 18 -7 -2 -10 -2 -5 0
13 8 8 23 -8 23 -8 0 -15 -7 -15 -15z"/>
<path d="M163 971 c1 -12 7 -17 18 -14 10 3 15 11 12 19 -8 21 -32 17 -30 -5z"/>
<path d="M3780 980 c0 -5 5 -10 10 -10 6 0 10 5 10 10 0 6 -4 10 -10 10 -5 0
-10 -4 -10 -10z"/>
<path d="M3953 932 c-14 -29 -15 -39 -6 -39 7 0 13 7 14 16 0 10 3 11 5 4 7
-15 34 -5 34 13 0 8 -6 11 -15 8 -20 -8 -19 6 3 22 15 12 15 13 1 14 -10 0
-25 -17 -36 -38z"/>
<path d="M245 950 c-3 -5 3 -10 14 -10 12 0 21 5 21 10 0 6 -6 10 -14 10 -8 0
-18 -4 -21 -10z"/>
<path d="M319 928 c-7 -13 -17 -26 -23 -30 -8 -6 -8 -8 0 -8 6 0 17 7 24 15 7
8 16 12 21 9 17 -10 31 7 18 22 -16 20 -26 18 -40 -8z"/>
<path d="M216 932 c-3 -6 -1 -14 5 -17 15 -10 25 3 12 16 -7 7 -13 7 -17 1z"/>
<path d="M157 923 c-4 -3 -7 -15 -7 -25 0 -13 7 -18 28 -17 26 1 26 1 3 8 -23
6 -23 7 -7 24 13 13 14 17 3 17 -7 0 -17 -3 -20 -7z"/>
<path d="M3580 909 c0 -5 5 -7 10 -4 6 3 10 8 10 11 0 2 -4 4 -10 4 -5 0 -10
-5 -10 -11z"/>
<path d="M3815 896 c20 -14 35 -12 35 5 0 5 -12 9 -27 9 -26 0 -26 -1 -8 -14z"/>
<path d="M3991 884 c0 -11 3 -14 6 -6 3 7 2 16 -1 19 -3 4 -6 -2 -5 -13z"/>
<path d="M97 883 c-4 -3 -7 -11 -7 -17 0 -6 5 -5 12 2 6 6 9 14 7 17 -3 3 -9
2 -12 -2z"/>
<path d="M250 880 c0 -5 7 -10 16 -10 8 0 12 5 9 10 -3 6 -10 10 -16 10 -5 0
-9 -4 -9 -10z"/>
<path d="M3904 865 c5 -18 0 -31 -15 -46 l-21 -21 6 29 c6 24 3 29 -13 29 -15
0 -19 -7 -19 -36 0 -56 -1 -60 -17 -60 -8 0 -15 -4 -15 -10 0 -18 28 -10 47
13 10 13 24 22 31 19 10 -3 7 -11 -9 -28 -12 -13 -17 -24 -11 -24 8 0 10 -10
7 -27 -6 -26 -5 -26 8 -10 13 15 17 16 41 3 29 -15 20 -31 -10 -19 -13 5 -16
3 -11 -10 3 -9 3 -18 -1 -21 -7 -4 -53 29 -52 38 1 17 -2 16 -21 -8 -11 -14
-27 -26 -35 -26 -9 0 -12 -5 -8 -12 5 -7 2 -9 -9 -5 -11 4 -18 -1 -23 -15 -5
-17 -12 -19 -45 -14 -44 7 -48 1 -17 -25 18 -16 18 -19 4 -19 -9 0 -19 -6 -22
-14 -3 -8 -16 -17 -30 -20 -27 -7 -31 -21 -9 -30 8 -3 12 -12 9 -21 -3 -8 -10
-12 -15 -9 -5 3 -7 10 -4 15 4 5 -3 9 -14 9 -32 0 -27 38 7 51 15 5 34 12 42
15 13 5 13 7 -2 18 -9 6 -18 25 -20 41 -1 16 -10 30 -18 32 -13 4 -13 3 0 -6
13 -10 13 -12 1 -20 -12 -8 -13 -14 -3 -36 11 -24 10 -25 -7 -15 -13 7 -22 7
-26 0 -3 -5 -1 -10 5 -10 16 0 4 -16 -30 -40 -25 -18 -29 -18 -23 -4 4 12 2
15 -8 12 -8 -3 -13 -14 -12 -24 2 -21 -13 -34 -39 -34 -16 0 -16 2 2 20 12 12
18 25 15 30 -9 14 -25 12 -25 -2 -1 -20 -48 -73 -57 -65 -4 5 -2 12 5 16 8 5
-1 8 -22 9 -22 1 -36 -4 -40 -13 -3 -8 -10 -15 -17 -15 -6 0 -9 7 -5 15 3 8 1
15 -4 15 -6 0 -10 7 -10 15 0 12 3 13 19 3 23 -14 52 4 50 31 -1 13 -2 12 -6
-2 -3 -14 -11 -17 -27 -13 -30 7 -66 -4 -66 -21 0 -8 -5 -11 -11 -7 -7 4 -7
-1 1 -16 6 -12 9 -24 6 -28 -3 -3 -6 -1 -6 4 0 5 -10 11 -22 11 -13 1 -24 6
-26 12 -2 5 -11 19 -22 31 -17 20 -19 20 -28 3 -6 -10 -23 -18 -43 -19 -19 -1
-36 -9 -43 -20 -10 -18 -11 -23 -14 -53 -1 -8 -10 -11 -21 -8 -10 2 -25 0 -32
-5 -11 -8 -10 -9 4 -4 21 7 23 -12 2 -20 -8 -4 -12 -10 -9 -15 3 -5 -2 -9 -10
-9 -10 0 -13 6 -9 17 5 13 3 15 -12 9 -18 -6 -18 -6 -2 12 23 26 22 52 -3 52
-25 0 -26 16 -2 29 14 8 15 12 5 22 -19 19 -33 0 -35 -44 -1 -24 -6 -37 -15
-37 -7 0 -13 7 -13 15 0 17 -16 20 -24 6 -13 -21 5 -37 37 -34 18 2 26 0 20
-3 -7 -3 -13 -12 -13 -20 0 -10 5 -12 13 -8 8 5 8 2 -2 -9 -16 -20 -41 -23
-41 -4 -1 7 -7 4 -15 -7 -8 -10 -12 -23 -9 -28 4 -5 -2 -8 -12 -7 -11 2 -25 0
-32 -5 -18 -11 -22 -4 -15 23 3 13 11 20 19 17 8 -3 14 -1 14 3 0 5 3 18 7 28
6 16 5 16 -9 3 -8 -8 -31 -28 -51 -43 -20 -16 -35 -34 -34 -40 1 -8 -11 -11
-35 -9 -30 2 -37 0 -32 -12 3 -8 12 -12 20 -9 8 3 14 1 14 -4 0 -11 -40 -36
-48 -29 -3 3 1 6 8 6 7 0 11 2 8 5 -11 11 -58 -7 -58 -22 0 -17 -37 -59 -46
-51 -3 4 -1 16 5 27 9 16 8 25 -6 41 -10 11 -23 20 -29 20 -7 0 -15 6 -17 13
-3 7 -6 5 -6 -5 -1 -10 -5 -18 -10 -18 -5 0 -17 -3 -26 -6 -13 -5 -15 -2 -9
20 5 21 3 25 -10 20 -9 -3 -16 -13 -16 -21 0 -12 -3 -12 -16 2 -9 9 -14 25
-11 35 4 16 0 20 -18 20 -26 0 -40 -28 -30 -60 4 -12 2 -20 -5 -20 -8 0 -11
-13 -8 -35 3 -27 0 -36 -14 -41 -20 -6 -54 21 -38 31 16 10 12 25 -5 19 -8 -4
-15 -1 -15 5 0 6 5 11 11 11 8 0 8 5 -1 15 -11 13 -14 13 -26 -2 -10 -14 -15
-15 -25 -6 -10 10 -9 17 6 33 18 20 18 20 -18 20 -21 0 -37 5 -37 10 0 6 -8 5
-20 -2 -10 -7 -17 -14 -15 -17 3 -2 0 -10 -7 -18 -15 -18 -1 -30 19 -17 13 8
22 6 35 -5 26 -22 22 -30 -13 -29 -17 1 -35 -5 -41 -13 -8 -11 -8 -10 -4 5 5
15 2 17 -15 13 -15 -4 -19 -2 -15 9 3 8 1 14 -4 14 -6 0 -10 -5 -10 -10 0 -7
-7 -7 -20 0 -11 6 -18 16 -14 22 4 7 9 7 13 -1 5 -7 15 -2 29 14 18 20 19 25
6 25 -10 0 -14 6 -10 15 3 8 1 15 -5 15 -5 0 -14 -10 -19 -23 -6 -15 -9 -17
-9 -5 -1 9 -7 19 -13 21 -8 3 -5 6 6 6 15 1 16 4 6 16 -16 20 -30 10 -30 -21
0 -14 4 -22 10 -19 6 3 10 2 10 -3 0 -5 -14 -9 -31 -10 -38 -1 -61 -19 -41
-31 11 -7 10 -9 -2 -14 -10 -4 -16 -1 -16 8 0 10 -11 15 -35 15 -19 0 -35 5
-35 10 0 7 -6 8 -16 2 -10 -6 -27 -5 -45 2 -32 11 -57 -2 -44 -24 6 -9 9 -9
16 1 4 7 11 10 15 6 11 -11 0 -18 -35 -22 -18 -2 -29 0 -26 5 3 5 -5 12 -17
16 -13 4 -26 12 -30 17 -10 16 -63 -4 -63 -23 0 -8 7 -15 15 -15 8 0 14 6 12
13 -2 13 16 16 42 6 24 -9 19 -31 -9 -50 -14 -9 -25 -25 -25 -35 0 -19 -11
-25 -23 -13 -3 4 0 13 8 21 20 19 19 25 -11 46 -25 18 -26 18 -39 0 -19 -24
-18 -32 3 -28 9 1 11 0 5 -2 -19 -6 -16 -21 5 -26 14 -4 14 -5 -3 -6 -11 0
-28 8 -38 19 -18 21 -37 26 -37 10 0 -5 -5 -10 -10 -10 -6 0 -5 8 2 20 8 12
19 18 30 14 10 -3 18 -1 18 5 0 14 -34 23 -56 15 -19 -7 -19 -7 0 14 14 17 16
25 7 35 -6 8 -8 17 -4 20 13 13 -24 7 -57 -9 -18 -9 -35 -25 -37 -35 -3 -11
-11 -19 -17 -19 -6 0 -18 -9 -26 -20 -8 -11 -19 -20 -24 -20 -5 0 -2 8 7 18
19 20 23 37 7 27 -5 -3 -20 1 -32 9 -26 19 -58 21 -58 4 0 -6 -3 -8 -6 -5 -4
4 -2 12 4 20 6 7 7 18 2 27 -7 11 -11 11 -24 1 -9 -8 -16 -10 -16 -5 0 5 -7 0
-16 -11 -13 -17 -16 -18 -24 -5 -7 12 -12 12 -21 3 -10 -10 -9 -17 5 -32 16
-17 16 -19 0 -25 -10 -4 -22 -2 -28 4 -7 7 -6 10 3 10 11 0 11 3 1 15 -6 8 -9
18 -7 22 3 5 -6 14 -21 21 -19 9 -23 9 -14 0 7 -7 12 -19 12 -27 0 -11 -3 -12
-11 -4 -7 7 -26 10 -43 7 -27 -5 -29 -4 -15 8 20 16 40 54 33 61 -3 3 -18 -8
-34 -24 -22 -24 -29 -26 -34 -14 -3 8 -15 15 -26 15 -22 0 -27 -15 -7 -23 6
-3 2 -6 -10 -6 -13 -1 -23 4 -23 10 0 5 -6 7 -13 3 -7 -5 -7 -1 2 10 13 16 12
17 -15 10 -16 -4 -35 -13 -42 -21 -25 -25 -33 -13 -12 17 12 17 26 28 31 25 5
-4 9 4 9 17 0 16 -6 24 -17 24 -10 1 -26 4 -35 9 -16 6 -17 3 -12 -24 6 -28 4
-31 -20 -31 -14 0 -26 5 -26 10 0 6 8 10 17 10 13 0 14 3 6 11 -16 16 -44 4
-37 -16 5 -11 2 -14 -10 -9 -9 3 -16 15 -16 25 0 10 -7 19 -15 19 -8 0 -14 -4
-13 -9 2 -5 -1 -9 -6 -9 -5 0 -13 -6 -17 -14 -7 -10 -9 -10 -9 2 0 9 7 26 16
39 12 17 13 26 5 34 -8 8 -11 7 -11 -6 0 -9 -3 -17 -8 -17 -4 0 -12 -10 -17
-22 -11 -23 -35 -37 -35 -19 0 6 3 10 8 9 4 -2 7 2 7 7 0 6 -5 9 -12 7 -23 -5
-14 8 12 18 14 5 25 14 25 20 0 17 -22 11 -46 -11 -19 -18 -22 -18 -21 -3 1 9
-4 19 -10 21 -7 3 -13 -2 -13 -11 0 -9 -5 -16 -11 -16 -6 0 -8 9 -4 20 7 23
-7 27 -24 6 -15 -18 -45 -14 -49 7 -3 13 1 15 14 10 14 -5 16 -3 10 13 -13 31
-12 47 3 52 8 3 11 0 7 -6 -3 -6 0 -17 8 -25 11 -11 12 -17 3 -26 -9 -9 -8
-11 5 -6 10 4 18 11 18 15 0 5 3 16 6 24 5 12 2 15 -9 10 -12 -4 -18 2 -23 20
-7 29 -19 34 -28 11 -3 -8 -10 -15 -17 -15 -6 0 -9 6 -6 14 4 9 -3 16 -16 20
-26 7 -106 -4 -113 -15 -3 -5 -14 -9 -26 -9 -17 0 -18 2 -8 15 7 8 18 15 25
15 8 0 16 13 20 29 4 21 11 28 21 24 11 -4 12 -9 3 -19 -7 -9 -8 -14 -1 -14 5
0 13 7 16 16 8 22 8 54 -1 54 -13 -1 -50 -34 -56 -50 -4 -11 -7 -10 -12 7 -4
12 -14 24 -24 26 -9 3 -5 5 10 6 26 1 64 31 40 31 -7 0 -2 10 9 22 18 20 19
24 5 34 -19 14 -20 25 0 18 8 -4 15 -2 15 4 0 17 -30 23 -36 7 -5 -11 -11 -12
-25 -4 -15 7 -19 6 -19 -6 0 -8 8 -15 18 -15 10 0 21 -3 24 -6 7 -6 -19 -61
-33 -70 -17 -10 -23 5 -8 22 11 14 10 17 -4 26 -10 5 -14 14 -11 20 4 7 2 8
-4 4 -7 -4 -12 -1 -12 8 0 8 5 18 10 21 21 13 10 32 -15 27 -29 -5 -32 4 -8
30 15 17 15 18 0 18 -10 0 -17 -7 -17 -15 0 -8 -6 -15 -14 -15 -18 0 -40 -26
-27 -34 5 -3 7 -15 4 -27 l-6 -20 -18 20 c-22 23 -25 47 -6 54 6 3 0 6 -15 6
-16 1 -28 -4 -28 -11 -1 -7 -6 -3 -13 10 -7 12 -17 19 -22 15 -4 -4 -5 -3 -2
4 11 17 -3 43 -23 43 -10 0 -20 -9 -23 -22 -2 -13 -8 -31 -12 -41 -6 -15 -4
-16 17 -8 15 5 30 6 39 0 11 -7 11 -9 -3 -9 -10 0 -18 -5 -18 -11 0 -6 -7 -9
-15 -5 -12 4 -14 0 -9 -19 4 -15 2 -25 -5 -25 -6 0 -11 5 -11 11 0 5 -8 9 -18
8 -18 -2 -72 10 -72 17 0 3 7 20 14 39 8 19 11 35 6 35 -5 0 -12 -9 -15 -20
-8 -24 -21 -26 -29 -5 -3 8 -13 15 -23 15 -17 -1 -17 -1 0 -14 21 -16 22 -30
1 -22 -9 3 -12 2 -9 -5 4 -6 14 -8 22 -5 10 4 13 0 11 -12 -2 -10 -11 -16 -21
-14 -16 3 -17 -24 -17 -373 l0 -375 2000 0 2001 0 -1 385 c-1 356 -6 423 -26
370 -8 -21 -27 -19 -49 5 -20 22 -14 53 9 44 8 -3 12 -12 9 -20 -6 -15 6 -18
22 -6 6 4 16 19 24 34 13 25 12 30 -4 48 -10 11 -23 19 -29 17 -6 -2 -22 0
-35 5 -21 8 -23 6 -17 -17z m62 -11 c-3 -9 -6 -18 -6 -20 0 -2 -10 -4 -22 -4
-21 0 -21 0 -2 19 23 24 38 27 30 5z m-3771 -24 c3 -5 1 -10 -4 -10 -6 0 -11
5 -11 10 0 6 2 10 4 10 3 0 8 -4 11 -10z m170 -70 c3 -5 1 -10 -4 -10 -6 0
-11 5 -11 10 0 6 2 10 4 10 3 0 8 -4 11 -10z m-136 -3 c-2 -1 -12 -9 -22 -16
-15 -12 -17 -12 -11 3 3 9 13 16 22 16 8 0 13 -1 11 -3z m41 -29 c0 -13 -23
-5 -28 10 -2 7 2 10 12 6 9 -3 16 -11 16 -16z m-190 -10 c0 -6 3 -8 7 -5 3 4
13 1 21 -5 7 -7 23 -14 35 -15 11 -2 23 -5 25 -8 7 -7 -8 -25 -21 -25 -7 0 -6
4 3 10 12 8 10 10 -10 10 -40 0 -97 24 -92 38 5 15 32 16 32 0z m274 0 c-5 -8
-2 -9 10 -5 13 5 17 2 14 -9 -4 -24 -36 -42 -46 -27 -4 7 -13 9 -21 4 -7 -5
-11 -10 -9 -12 9 -12 -29 -35 -49 -31 -13 2 -31 -2 -41 -10 -21 -18 -52 -30
-52 -20 0 11 54 41 81 46 15 2 23 9 21 19 -4 23 33 40 58 27 11 -6 21 -8 21
-5 1 3 3 10 4 15 1 6 3 12 4 15 0 3 4 5 7 5 3 0 2 -5 -2 -12z m3633 -3 c8 -23
-7 -33 -18 -12 -6 9 -15 14 -21 11 -7 -4 -8 -2 -4 4 10 17 36 15 43 -3z
m-3773 -2 c-5 -5 -12 -12 -16 -18 -4 -6 -8 -2 -8 8 0 9 7 17 17 17 9 0 12 -3
7 -7z m30 -27 c-7 -19 -25 -17 -32 4 -3 9 1 11 12 7 9 -4 16 -1 16 5 0 6 2 9
5 6 3 -3 3 -13 -1 -22z m166 5 c0 -6 -5 -13 -11 -16 -5 -4 -8 -12 -6 -18 4
-12 -22 -47 -35 -47 -5 0 -8 7 -8 15 0 8 6 15 14 15 8 0 17 14 21 30 6 27 25
43 25 21z m-345 -31 c3 -6 0 -17 -9 -25 -11 -11 -15 -12 -19 -2 -9 27 14 50
28 27z m70 -12 c3 -3 -2 -11 -12 -19 -11 -9 -14 -10 -9 -1 4 6 2 12 -3 12 -6
0 -11 4 -11 9 0 10 25 9 35 -1z m3725 -18 c0 -10 -92 -39 -100 -32 -3 3 1 7 8
9 7 3 18 10 25 17 24 24 67 27 67 6z m90 -10 c8 -5 11 -12 8 -16 -10 -9 -38 3
-38 16 0 12 10 13 30 0z m40 0 c0 -5 -5 -10 -11 -10 -5 0 -7 5 -4 10 3 6 8 10
11 10 2 0 4 -4 4 -10z m-3960 -20 c0 -5 -4 -10 -10 -10 -5 0 -10 5 -10 10 0 6
5 10 10 10 6 0 10 -4 10 -10z m320 -10 c0 -5 -5 -10 -11 -10 -5 0 -7 5 -4 10
3 6 8 10 11 10 2 0 4 -4 4 -10z m43 -15 c-5 -13 -23 -22 -23 -11 0 15 14 35
21 31 4 -3 6 -12 2 -20z m-150 -11 c-2 -6 -23 -11 -47 -11 -28 0 -43 4 -40 11
3 7 24 11 48 11 27 0 42 -4 39 -11z m67 1 c-7 -9 -15 -13 -19 -10 -3 3 1 10 9
15 21 14 24 12 10 -5z m3504 -10 c-6 -14 -11 -17 -44 -19 -8 -1 -14 -9 -12
-19 2 -11 -4 -17 -18 -17 -26 0 -29 49 -2 52 9 0 22 2 29 2 6 1 15 5 19 9 13
13 34 7 28 -8z m-3747 -1 c-3 -3 -12 -4 -19 -1 -8 3 -5 6 6 6 11 1 17 -2 13
-5z m58 -4 c-3 -5 -12 -10 -20 -10 -8 0 -17 5 -20 10 -4 6 5 10 20 10 15 0 24
-4 20 -10z m155 -6 c0 -14 -3 -14 -15 -4 -8 7 -15 14 -15 16 0 2 7 4 15 4 8 0
15 -7 15 -16z m291 -11 c1 -10 1 -24 0 -30 -1 -7 6 -13 15 -13 10 0 14 -3 10
-7 -4 -4 -32 -7 -62 -8 -47 0 -54 2 -51 17 3 9 0 19 -6 21 -6 2 -7 9 -3 16 10
15 36 -4 36 -26 0 -9 8 -13 23 -11 17 2 22 9 22 31 -1 29 14 38 16 10z m-238
-24 c-3 -12 0 -25 7 -29 8 -5 9 -10 2 -14 -6 -3 -13 3 -17 14 -5 16 -10 18
-26 10 -27 -15 -25 5 3 24 30 21 37 20 31 -5z m-143 4 c0 -5 -5 -15 -10 -23
-8 -12 -10 -12 -10 -1 0 10 -6 9 -27 -4 l-28 -18 24 27 c23 24 51 35 51 19z
m190 0 c0 -5 -5 -15 -10 -23 -8 -12 -10 -11 -10 8 0 12 5 22 10 22 6 0 10 -3
10 -7z m-132 -22 c-6 -10 -18 -17 -25 -14 -25 10 -12 33 19 33 15 0 16 -3 6
-19z m2956 -16 c-4 -8 -10 -13 -15 -10 -4 3 -6 12 -3 20 4 8 10 13 15 10 4 -3
6 -12 3 -20z m-2741 8 c-7 -2 -19 -2 -25 0 -7 3 -2 5 12 5 14 0 19 -2 13 -5z
m-259 -34 c-31 -12 -39 -10 -19 5 11 8 24 12 29 8 5 -3 1 -9 -10 -13z m239 6
c-3 -9 -8 -14 -10 -11 -3 3 -2 9 2 15 9 16 15 13 8 -4z m2679 -7 c-7 -7 -12
-8 -12 -2 0 14 12 26 19 19 2 -3 -1 -11 -7 -17z m-2542 -29 c0 -23 -28 -25
-36 -4 -4 8 -3 22 0 31 5 13 9 14 21 4 8 -7 15 -21 15 -31z m2888 23 c-10 -2
-18 -8 -18 -13 0 -15 -57 -10 -64 6 -3 8 -1 15 3 15 5 0 11 -5 13 -12 3 -8 12
-7 34 4 16 8 34 12 39 9 6 -3 2 -7 -7 -9z m136 7 c-3 -5 -14 -9 -25 -9 -10 0
-19 4 -19 9 0 5 11 9 25 9 13 0 22 -4 19 -9z m-3324 -9 c0 -13 -11 -13 -30 0
-12 8 -11 10 8 10 12 0 22 -4 22 -10z m124 -5 c-4 -8 -12 -15 -19 -15 -7 0
-15 -6 -18 -12 -2 -7 -7 -10 -11 -7 -12 11 5 38 27 42 12 2 23 5 24 6 1 0 0
-6 -3 -14z m86 5 c0 -5 -7 -7 -15 -4 -8 4 -15 8 -15 10 0 2 7 4 15 4 8 0 15
-4 15 -10z m2688 -8 c2 -7 -3 -12 -12 -12 -9 0 -16 7 -16 16 0 17 22 14 28 -4z
m138 -9 c-10 -10 -19 5 -10 18 6 11 8 11 12 0 2 -7 1 -15 -2 -18z m-66 7 c-19
-13 -30 -13 -30 0 0 6 10 10 23 10 18 0 19 -2 7 -10z m300 2 c0 -12 -49 -37
-57 -29 -3 4 1 7 10 7 10 0 17 7 17 15 0 8 7 15 15 15 8 0 15 -4 15 -8z
m-3100 -17 c7 -9 8 -15 2 -15 -5 0 -12 7 -16 15 -3 8 -4 15 -2 15 2 0 9 -7 16
-15z m2550 0 c0 -8 -2 -15 -4 -15 -2 0 -6 7 -10 15 -3 8 -1 15 4 15 6 0 10 -7
10 -15z m-2480 -5 c0 -5 -7 -10 -16 -10 -8 0 -12 5 -9 10 3 6 10 10 16 10 5 0
9 -4 9 -10z m133 -7 c-7 -2 -21 -2 -30 0 -10 3 -4 5 12 5 17 0 24 -2 18 -5z
m2632 -13 c3 -5 1 -10 -4 -10 -6 0 -11 5 -11 10 0 6 2 10 4 10 3 0 8 -4 11
-10z m-3048 -6 c-3 -3 -12 -4 -19 -1 -8 3 -5 6 6 6 11 1 17 -2 13 -5z m378 -4
c4 -6 -5 -10 -20 -10 -15 0 -24 4 -20 10 3 6 12 10 20 10 8 0 17 -4 20 -10z
m85 2 c0 -12 -46 -32 -54 -25 -9 9 -7 25 2 19 4 -2 14 -1 22 5 19 11 30 11 30
1z m2447 -9 c-9 -9 -19 -14 -23 -11 -10 10 6 28 24 28 15 0 15 -1 -1 -17z
m-46 -9 c10 -9 15 -22 12 -30 -8 -21 -23 -17 -23 6 0 11 -7 20 -15 20 -8 0
-15 5 -15 10 0 15 21 12 41 -6z m-2794 -10 c-3 -3 -12 -4 -19 -1 -8 3 -5 6 6
6 11 1 17 -2 13 -5z m513 -14 c0 -5 -5 -10 -11 -10 -5 0 -7 5 -4 10 3 6 8 10
11 10 2 0 4 -4 4 -10z m-40 -11 c13 -9 13 -10 -1 -6 -9 3 -22 0 -28 -6 -8 -8
-11 -7 -11 6 0 19 18 22 40 6z m2270 2 c0 -12 -41 -22 -54 -13 -6 4 3 10 19
13 17 4 31 7 33 8 1 0 2 -3 2 -8z m-2905 -11 c-3 -5 -11 -10 -16 -10 -6 0 -7
5 -4 10 3 6 11 10 16 10 6 0 7 -4 4 -10z m740 0 c-3 -5 -12 -10 -18 -10 -7 0
-6 4 3 10 19 12 23 12 15 0z m2064 -18 c-14 -22 -53 -37 -69 -27 -20 12 -9 21
20 17 18 -3 30 0 30 7 0 6 -6 11 -12 12 -7 1 -2 4 12 8 32 10 34 8 19 -17z
m301 14 c0 -2 -7 -6 -15 -10 -8 -3 -15 -1 -15 4 0 6 7 10 15 10 8 0 15 -2 15
-4z m63 -40 c42 -25 42 -25 39 -78 -3 -50 -6 -55 -42 -76 l-39 -22 -45 22
c-44 21 -45 23 -48 72 -3 51 -3 51 42 78 25 15 46 28 48 28 2 0 22 -11 45 -24z
m-2308 -7 c-10 -15 -25 -10 -19 6 4 8 10 12 15 9 5 -3 7 -10 4 -15z m2102 4
c-9 -9 -19 -14 -23 -11 -10 10 6 28 24 28 15 0 15 -1 -1 -17z m-2014 0 c-13
-2 -33 -2 -45 0 -13 2 -3 4 22 4 25 0 35 -2 23 -4z m506 2 c-3 -2 -22 -11 -42
-20 -36 -15 -37 -14 -37 5 0 17 7 20 42 20 23 0 39 -2 37 -5z m871 -52 c0 -27
-28 -12 -32 17 -4 28 -4 29 14 13 10 -9 18 -22 18 -30z m381 24 c-13 -13 -26
-3 -16 12 3 6 11 8 17 5 6 -4 6 -10 -1 -17z m166 1 c-3 -8 -6 -5 -6 6 -1 11 2
17 5 13 3 -3 4 -12 1 -19z m453 7 c6 4 10 -7 10 -27 0 -27 4 -34 20 -34 15 0
20 7 20 28 0 15 5 28 10 28 6 0 10 -13 10 -30 0 -40 18 -38 22 2 3 29 6 32 38
33 27 0 35 -4 38 -20 4 -21 29 -45 46 -45 6 1 0 10 -14 21 -24 20 -24 21 -5
35 22 16 37 14 43 -5 3 -9 -2 -11 -18 -6 -15 5 -20 4 -16 -4 4 -6 14 -11 22
-11 8 0 14 -9 14 -19 0 -18 -8 -19 -135 -19 -75 0 -138 -2 -142 -5 -12 -13
-43 15 -43 38 0 30 38 59 56 44 7 -6 18 -8 24 -4z m-2346 -28 c-8 -5 -12 -12
-9 -18 4 -5 -3 -9 -14 -9 -27 0 -26 9 2 36 14 14 24 17 29 10 4 -6 0 -14 -8
-19z m1676 29 c0 -2 -7 -7 -16 -10 -8 -3 -12 -2 -9 4 6 10 25 14 25 6z m-865
-74 c-3 -4 -11 0 -16 8 -8 12 -10 9 -6 -11 3 -22 0 -25 -15 -21 -20 5 -25 22
-7 22 7 0 9 9 6 22 -4 14 0 26 11 34 15 11 18 9 25 -18 5 -17 5 -33 2 -36z
m55 47 c0 -5 -4 -9 -10 -9 -5 0 -10 7 -10 16 0 8 5 12 10 9 6 -3 10 -10 10
-16z m608 -7 c2 -12 -1 -22 -7 -22 -6 0 -11 4 -11 9 0 5 -3 17 -7 27 -4 12 -2
15 8 12 8 -2 15 -14 17 -26z m352 24 c0 -2 -7 -7 -16 -10 -8 -3 -12 -2 -9 4 6
10 25 14 25 6z m821 -18 l0 -23 11 23 c17 34 35 28 31 -10 -4 -31 -3 -32 11
-14 9 11 16 26 16 33 0 19 27 16 33 -4 2 -10 8 -25 11 -33 5 -12 -3 -15 -39
-17 -36 -1 -45 2 -46 15 -1 15 -2 15 -6 0 -5 -20 -23 -24 -23 -6 0 9 -3 9 -12
0 -7 -7 -19 -12 -27 -11 -11 0 -12 2 -3 6 6 2 12 18 12 34 0 35 30 41 31 7z
m-2411 5 c0 -5 -11 -9 -25 -9 -14 -1 -25 2 -25 7 0 5 11 9 25 9 14 0 25 -3 25
-7z m52 -24 c-3 -19 -7 -26 -12 -19 -8 14 -2 50 9 50 4 0 5 -14 3 -31z m147
-43 c-9 -8 -10 -5 -5 14 3 14 7 34 7 45 1 11 4 5 6 -14 3 -19 -1 -39 -8 -45z
m1355 20 c-4 -12 -13 -30 -21 -41 -15 -19 -15 -19 -8 5 5 14 8 40 8 59 0 30 2
32 14 15 7 -10 10 -27 7 -38z m-867 7 c-3 -10 -5 -4 -5 12 0 17 2 24 5 18 2
-7 2 -21 0 -30z m761 12 c-3 -3 -9 2 -12 12 -6 14 -5 15 5 6 7 -7 10 -15 7
-18z m-1608 0 c0 -8 -4 -15 -9 -15 -13 0 -22 16 -14 24 11 11 23 6 23 -9z m81
-8 c-10 -9 -11 -8 -5 6 3 10 9 15 12 12 3 -3 0 -11 -7 -18z m799 13 c0 -5 11
-10 24 -10 13 0 26 -7 30 -15 3 -8 1 -15 -4 -15 -6 0 -10 5 -10 11 0 6 -8 9
-18 7 -12 -3 -24 2 -31 13 -7 12 -7 19 -1 19 5 0 10 -4 10 -10z m235 0 c3 -5
-1 -10 -10 -10 -9 0 -13 5 -10 10 3 6 8 10 10 10 2 0 7 -4 10 -10z m241 -6
c-4 -9 -1 -23 5 -30 7 -9 8 -14 1 -14 -6 0 -12 6 -15 13 -3 9 -9 7 -24 -5 -26
-24 -31 -23 -25 7 2 15 0 25 -7 25 -6 0 -11 -4 -11 -10 0 -5 -9 -14 -20 -20
-17 -9 -20 -8 -20 8 0 19 43 38 94 41 22 1 27 -2 22 -15z m604 6 c0 -5 -5 -10
-11 -10 -5 0 -7 5 -4 10 3 6 8 10 11 10 2 0 4 -4 4 -10z m-142 -14 c-7 -8 -15
-12 -17 -11 -5 6 10 25 20 25 5 0 4 -6 -3 -14z m-298 -12 c0 -9 -9 -18 -20
-21 -11 -3 -20 -10 -20 -16 0 -6 -3 -7 -6 -4 -8 8 23 57 36 57 6 0 10 -7 10
-16z m-1483 0 c-3 -3 -12 -4 -19 -1 -8 3 -5 6 6 6 11 1 17 -2 13 -5z m633 -14
c0 -5 -7 -10 -15 -10 -8 0 -15 5 -15 10 0 6 7 10 15 10 8 0 15 -4 15 -10z
m390 -4 c0 -3 -4 -8 -10 -11 -5 -3 -10 -1 -10 4 0 6 5 11 10 11 6 0 10 -2 10
-4z m174 -12 c4 -11 2 -15 -8 -11 -7 3 -19 0 -25 -6 -6 -6 -11 -8 -11 -5 0 7
29 38 35 38 1 0 6 -7 9 -16z m366 1 c0 -8 -9 -19 -20 -25 -17 -9 -20 -8 -20 8
0 10 3 22 7 25 12 12 33 7 33 -8z m740 -4 c0 -4 -22 -8 -50 -10 -58 -2 -69 16
-12 21 41 4 62 0 62 -11z m-1243 3 c-3 -3 -12 -4 -19 -1 -8 3 -5 6 6 6 11 1
17 -2 13 -5z m310 0 c-3 -3 -12 -4 -19 -1 -8 3 -5 6 6 6 11 1 17 -2 13 -5z
m33 -10 c0 -8 -5 -12 -10 -9 -6 4 -8 11 -5 16 9 14 15 11 15 -7z m1030 4 c0
-4 -9 -8 -20 -8 -11 0 -20 4 -20 9 0 6 9 9 20 8 11 -1 20 -5 20 -9z m220 2 c0
-6 -25 -10 -55 -10 -30 0 -55 4 -55 8 0 4 25 9 55 10 31 1 55 -3 55 -8z
m-2230 -4 c0 -3 -4 -8 -10 -11 -5 -3 -10 -1 -10 4 0 6 5 11 10 11 6 0 10 -2
10 -4z m916 -17 c9 -15 -23 -10 -35 5 -10 12 -8 13 9 9 11 -3 23 -9 26 -14z
m-405 -17 c-6 -2 -8 -9 -5 -14 4 -7 2 -8 -4 -4 -7 4 -12 13 -12 21 0 16 23 26
29 11 2 -5 -1 -12 -8 -14z m309 18 c0 -5 -4 -10 -10 -10 -5 0 -10 5 -10 10 0
6 5 10 10 10 6 0 10 -4 10 -10z m225 -10 c-3 -5 -11 -10 -16 -10 -6 0 -7 5 -4
10 3 6 11 10 16 10 6 0 7 -4 4 -10z m305 0 c0 -5 -4 -10 -10 -10 -5 0 -10 5
-10 10 0 6 5 10 10 10 6 0 10 -4 10 -10z m-635 -10 c-3 -5 -15 -10 -26 -10
-10 0 -19 5 -19 10 0 6 12 10 26 10 14 0 23 -4 19 -10z m67 -15 c-2 -14 1 -32
8 -40 9 -11 9 -15 1 -15 -6 0 -16 11 -23 25 -6 13 -14 22 -19 20 -4 -3 -10 -1
-14 5 -3 5 3 10 14 10 11 0 23 5 26 10 10 16 13 12 7 -15z m208 15 c0 -5 -4
-10 -10 -10 -5 0 -10 5 -10 10 0 6 5 10 10 10 6 0 10 -4 10 -10z m-140 -20 c0
-9 -42 -21 -49 -15 -2 3 1 5 7 5 7 0 12 7 12 15 0 9 6 12 15 9 8 -4 15 -10 15
-14z m17 -2 c-3 -8 -6 -5 -6 6 -1 11 2 17 5 13 3 -3 4 -12 1 -19z m93 2 c0 -5
-5 -10 -11 -10 -5 0 -8 -4 -5 -9 4 -5 3 -17 -1 -28 -6 -16 -8 -15 -13 7 -3 14
-1 30 5 37 12 15 25 16 25 3z m198 -2 c-6 -17 -37 -23 -51 -9 -7 7 -3 8 13 4
16 -4 21 -3 16 5 -4 7 -1 12 9 12 9 0 15 -6 13 -12z m-501 -30 c-3 -7 -5 -2
-5 12 0 14 2 19 5 13 2 -7 2 -19 0 -25z m250 17 c0 -8 -4 -15 -9 -15 -10 0
-11 14 -1 23 9 10 10 9 10 -8z m444 -17 c-3 -21 -6 -26 -9 -15 -3 17 3 47 11
47 2 0 1 -15 -2 -32z m-711 13 c0 -6 -4 -13 -10 -16 -5 -3 -10 1 -10 9 0 9 5
16 10 16 6 0 10 -4 10 -9z m350 5 c0 -3 -4 -8 -10 -11 -5 -3 -10 -1 -10 4 0 6
5 11 10 11 6 0 10 -2 10 -4z m93 -3 c-7 -2 -19 -2 -25 0 -7 3 -2 5 12 5 14 0
19 -2 13 -5z m147 -9 c0 -14 -3 -14 -15 -4 -8 7 -15 14 -15 16 0 2 7 4 15 4 8
0 15 -7 15 -16z m70 7 c0 -5 -9 -7 -20 -4 -11 3 -20 7 -20 9 0 2 9 4 20 4 11
0 20 -4 20 -9z m-276 -25 c-3 -9 -10 -16 -15 -16 -6 0 -5 9 1 21 13 24 24 20
14 -5z m86 -6 c0 -5 -4 -10 -10 -10 -5 0 -10 5 -10 10 0 6 5 10 10 10 6 0 10
-4 10 -10z"/>
<path d="M551 434 c0 -11 3 -14 6 -6 3 7 2 16 -1 19 -3 4 -6 -2 -5 -13z"/>
<path d="M3243 198 c1 -21 3 -38 5 -38 13 0 42 23 37 30 -3 5 1 13 9 17 12 6
7 11 -19 19 l-34 11 2 -39z"/>
<path d="M3413 224 c-9 -24 10 -34 32 -18 17 13 18 16 5 24 -21 14 -30 12 -37
-6z"/>
<path d="M3608 233 c7 -3 16 -2 19 1 4 3 -2 6 -13 5 -11 0 -14 -3 -6 -6z"/>
<path d="M3605 200 c4 -6 11 -8 16 -5 14 9 11 15 -7 15 -8 0 -12 -5 -9 -10z"/>
<path d="M37 866 c-12 -10 -15 -16 -7 -21 16 -10 40 2 40 20 0 18 -9 19 -33 1z"/>
<path d="M220 873 c0 -15 19 -37 26 -31 3 4 -1 14 -10 23 -9 9 -16 13 -16 8z"/>
<path d="M313 825 c-7 -8 -9 -16 -4 -19 5 -3 12 1 15 10 8 22 4 25 -11 9z"/>
<path d="M108 799 c-10 -10 -15 -25 -12 -34 7 -18 16 -19 32 -3 15 15 16 32 2
23 -5 -3 -10 -1 -10 4 0 6 5 11 10 11 6 0 10 5 10 10 0 15 -13 11 -32 -11z"/>
<path d="M3760 806 c0 -14 67 -33 78 -22 3 3 -3 6 -14 7 -10 0 -13 3 -6 6 6 2
12 9 12 14 0 5 -10 4 -21 -3 -17 -10 -23 -10 -26 0 -6 16 -23 15 -23 -2z"/>
<path d="M3680 796 c0 -9 5 -16 10 -16 6 0 10 4 10 9 0 6 -4 13 -10 16 -5 3
-10 -1 -10 -9z"/>
<path d="M430 779 c7 -11 14 -19 16 -16 7 7 -7 37 -17 37 -6 0 -5 -9 1 -21z"/>
<path d="M507 779 c7 -7 15 -10 18 -7 3 3 -2 9 -12 12 -14 6 -15 5 -6 -5z"/>
<path d="M3630 770 c0 -5 -18 -13 -40 -16 -42 -7 -51 -18 -24 -28 27 -10 44
-7 38 8 -4 11 0 13 15 9 16 -4 21 -1 21 16 0 11 -2 21 -5 21 -3 0 -5 -4 -5
-10z"/>
<path d="M3310 744 c0 -8 5 -12 10 -9 6 3 10 10 10 16 0 5 -4 9 -10 9 -5 0
-10 -7 -10 -16z"/>
<path d="M3472 720 c0 -14 2 -19 5 -12 2 6 2 18 0 25 -3 6 -5 1 -5 -13z"/>
<path d="M598 723 c7 -3 16 -2 19 1 4 3 -2 6 -13 5 -11 0 -14 -3 -6 -6z"/>
<path d="M3500 720 c0 -5 4 -10 9 -10 6 0 13 5 16 10 3 6 -1 10 -9 10 -9 0
-16 -4 -16 -10z"/>
<path d="M3682 710 c0 -14 2 -19 5 -12 2 6 2 18 0 25 -3 6 -5 1 -5 -13z"/>
<path d="M3828 723 c7 -3 16 -2 19 1 4 3 -2 6 -13 5 -11 0 -14 -3 -6 -6z"/>
<path d="M3552 700 c0 -14 2 -19 5 -12 2 6 2 18 0 25 -3 6 -5 1 -5 -13z"/>
<path d="M572 698 c-16 -16 -15 -28 2 -28 7 0 16 9 19 20 6 23 -3 26 -21 8z"/>
<path d="M3360 699 c0 -5 5 -7 10 -4 6 3 10 8 10 11 0 2 -4 4 -10 4 -5 0 -10
-5 -10 -11z"/>
<path d="M490 685 c0 -9 6 -12 15 -9 8 4 15 10 15 15 0 5 -7 9 -15 9 -8 0 -15
-7 -15 -15z"/>
<path d="M530 690 c0 -5 5 -10 10 -10 6 0 10 5 10 10 0 6 -4 10 -10 10 -5 0
-10 -4 -10 -10z"/>
<path d="M3586 675 c-11 -8 -17 -18 -13 -21 4 -4 -1 -12 -9 -19 -19 -14 -11
-55 11 -55 16 0 29 33 29 77 1 18 1 33 1 33 0 0 -9 -7 -19 -15z"/>
<path d="M3700 680 c0 -5 -7 -10 -15 -10 -8 0 -15 -5 -15 -11 0 -6 9 -9 20 -6
11 3 20 1 20 -4 0 -5 8 -9 18 -9 16 1 16 2 -2 15 -10 7 -15 18 -11 24 3 6 1
11 -4 11 -6 0 -11 -4 -11 -10z"/>
<path d="M3751 685 c0 -5 3 -16 8 -23 6 -10 11 -9 22 4 12 16 12 17 -3 11 -9
-3 -19 -1 -22 6 -2 7 -5 8 -5 2z"/>
<path d="M534 638 c-2 -3 14 -9 36 -13 38 -6 60 -2 60 13 0 9 -91 9 -96 0z"/>
<path d="M2986 641 c-4 -5 3 -7 14 -4 23 6 26 13 6 13 -8 0 -17 -4 -20 -9z"/>
<path d="M3119 623 c-13 -15 -12 -15 9 -4 23 12 28 21 13 21 -5 0 -15 -7 -22
-17z"/>
<path d="M535 610 c3 -5 10 -10 16 -10 5 0 9 5 9 10 0 6 -7 10 -16 10 -8 0
-12 -4 -9 -10z"/>
<path d="M3451 601 c13 -11 26 -18 28 -15 7 7 -21 34 -36 34 -10 0 -8 -6 8
-19z"/>
<path d="M600 585 c0 -8 7 -15 15 -15 8 0 15 7 15 15 0 8 -7 15 -15 15 -8 0
-15 -7 -15 -15z"/>
<path d="M3375 590 c-3 -5 -1 -10 4 -10 6 0 11 5 11 10 0 6 -2 10 -4 10 -3 0
-8 -4 -11 -10z"/>
<path d="M3493 585 c-9 -26 4 -28 26 -6 21 21 21 21 1 21 -11 0 -23 -7 -27
-15z"/>
<path d="M2970 573 c-13 -15 -12 -16 4 -10 10 4 20 7 22 7 2 0 4 5 4 10 0 15
-13 12 -30 -7z"/>
<path d="M3437 576 c-10 -25 -5 -28 24 -17 16 7 18 10 7 10 -9 1 -18 6 -20 13
-3 7 -7 5 -11 -6z"/>
<path d="M3123 567 l-22 -12 25 -12 c22 -10 24 -9 24 13 0 13 -1 24 -2 24 -2
-1 -13 -6 -25 -13z"/>
<path d="M3310 570 c0 -5 5 -10 10 -10 6 0 10 5 10 10 0 6 -4 10 -10 10 -5 0
-10 -4 -10 -10z"/>
<path d="M3395 570 c-3 -5 -1 -10 4 -10 6 0 11 5 11 10 0 6 -2 10 -4 10 -3 0
-8 -4 -11 -10z"/>
<path d="M3520 573 c0 -5 7 -17 15 -27 11 -14 18 -17 26 -9 7 7 5 15 -6 27
-17 17 -35 21 -35 9z"/>
<path d="M958 558 c5 -5 16 -8 23 -6 8 3 3 7 -10 11 -17 4 -21 3 -13 -5z"/>
<path d="M3036 553 c-4 -11 -1 -22 8 -29 20 -14 20 -33 -1 -56 -15 -17 -15
-18 5 -18 13 0 22 6 22 15 0 8 17 19 40 26 22 7 40 16 40 21 0 12 -28 10 -32
-4 -3 -7 -12 -9 -22 -5 -12 5 -15 13 -11 27 6 20 -9 28 -20 10 -11 -18 -26
-10 -20 10 8 24 0 27 -9 3z"/>
<path d="M3213 546 c-10 -11 -9 -15 3 -20 23 -9 24 -8 24 14 0 23 -10 25 -27
6z"/>
<path d="M700 530 c0 -5 5 -10 10 -10 6 0 10 5 10 10 0 6 -4 10 -10 10 -5 0
-10 -4 -10 -10z"/>
<path d="M3260 530 c0 -5 5 -10 11 -10 5 0 7 5 4 10 -3 6 -8 10 -11 10 -2 0
-4 -4 -4 -10z"/>
<path d="M2908 523 c7 -3 16 -2 19 1 4 3 -2 6 -13 5 -11 0 -14 -3 -6 -6z"/>
<path d="M2960 520 c0 -5 5 -10 10 -10 6 0 10 5 10 10 0 6 -4 10 -10 10 -5 0
-10 -4 -10 -10z"/>
<path d="M2990 510 c0 -5 7 -10 15 -10 8 0 15 5 15 10 0 6 -7 10 -15 10 -8 0
-15 -4 -15 -10z"/>
<path d="M3405 510 c-3 -5 3 -10 14 -10 12 0 21 5 21 10 0 6 -6 10 -14 10 -8
0 -18 -4 -21 -10z"/>
<path d="M2555 499 c-11 -17 1 -21 15 -4 8 9 8 15 2 15 -6 0 -14 -5 -17 -11z"/>
<path d="M749 495 c-3 -2 -16 -6 -29 -8 -13 -2 -25 -8 -27 -13 -5 -14 35 -36
42 -24 3 6 1 10 -4 10 -6 0 -11 5 -11 11 0 6 7 9 15 5 18 -6 45 2 45 15 0 9
-23 12 -31 4z"/>
<path d="M887 486 c-3 -8 1 -17 10 -20 20 -8 27 -1 20 19 -8 19 -23 20 -30 1z"/>
<path d="M795 469 c-13 -19 4 -22 37 -6 l33 17 -32 0 c-17 0 -35 -5 -38 -11z"/>
<path d="M970 460 c0 -5 5 -10 10 -10 6 0 10 5 10 10 0 6 -4 10 -10 10 -5 0
-10 -4 -10 -10z"/>
<path d="M920 440 c-29 -23 -44 -26 -37 -7 4 10 -2 13 -18 9 -30 -5 -40 -38
-13 -45 24 -7 54 5 86 32 39 34 24 44 -18 11z"/>
<path d="M1070 450 c0 -5 5 -10 10 -10 6 0 10 5 10 10 0 6 -4 10 -10 10 -5 0
-10 -4 -10 -10z"/>
<path d="M1535 450 c-3 -5 1 -10 9 -10 9 0 16 5 16 10 0 6 -4 10 -9 10 -6 0
-13 -4 -16 -10z"/>
<path d="M2727 431 c4 -15 8 -17 28 -7 13 6 23 11 22 12 -1 1 -14 4 -29 8 -22
5 -25 3 -21 -13z"/>
<path d="M1052 424 c10 -10 20 -15 24 -12 3 4 -5 12 -18 18 -22 12 -22 12 -6
-6z"/>
<path d="M1700 429 c0 -5 5 -7 10 -4 6 3 10 8 10 11 0 2 -4 4 -10 4 -5 0 -10
-5 -10 -11z"/>
<path d="M2685 420 c-3 -5 -2 -18 4 -27 7 -14 9 -12 8 10 -2 30 -3 31 -12 17z"/>
<path d="M2120 409 c0 -5 9 -9 20 -9 11 0 20 2 20 4 0 2 -9 6 -20 9 -11 3 -20
1 -20 -4z"/>
<path d="M2801 398 c0 -13 3 -17 6 -9 4 10 7 10 13 1 4 -7 10 -8 13 -3 3 5 -3
14 -14 21 -17 11 -19 9 -18 -10z"/>
<path d="M1586 390 c6 -6 21 -6 39 -1 30 9 30 9 -9 10 -26 1 -37 -2 -30 -9z"/>
<path d="M1692 389 c2 -6 8 -10 13 -10 5 0 11 4 13 10 2 6 -4 11 -13 11 -9 0
-15 -5 -13 -11z"/>
<path d="M1780 391 c0 -6 4 -13 10 -16 6 -3 7 1 4 9 -7 18 -14 21 -14 7z"/>
<path d="M2240 385 c0 -8 2 -15 4 -15 2 0 6 7 10 15 3 8 1 15 -4 15 -6 0 -10
-7 -10 -15z"/>
<path d="M1545 380 c-3 -5 1 -10 10 -10 9 0 13 5 10 10 -3 6 -8 10 -10 10 -2
0 -7 -4 -10 -10z"/>
<path d="M2320 382 c0 -10 22 -32 32 -32 5 0 3 9 -4 20 -13 20 -28 27 -28 12z"/>
<path d="M1040 371 c0 -9 23 -21 41 -21 4 0 6 7 3 15 -7 16 -44 21 -44 6z"/>
<path d="M2080 372 c0 -7 -7 -12 -15 -12 -19 0 -20 -16 -1 -23 15 -6 33 29 22
40 -3 4 -6 1 -6 -5z"/>
<path d="M2795 360 c-3 -5 -1 -10 4 -10 6 0 11 5 11 10 0 6 -2 10 -4 10 -3 0
-8 -4 -11 -10z"/>
<path d="M1476 345 c-3 -8 -15 -15 -27 -15 -12 0 -20 -2 -17 -5 11 -11 88 8
88 21 0 19 -36 18 -44 -1z"/>
<path d="M1785 350 c-4 -6 -10 -8 -15 -5 -12 7 -19 -31 -8 -46 8 -11 9 -10 4
4 -3 10 0 17 8 17 19 0 40 27 27 34 -5 4 -12 2 -16 -4z"/>
<path d="M2010 351 c0 -5 7 -11 15 -15 9 -3 15 0 15 9 0 8 -7 15 -15 15 -8 0
-15 -4 -15 -9z"/>
<path d="M2215 350 c-8 -13 5 -13 25 0 13 8 13 10 -2 10 -9 0 -20 -4 -23 -10z"/>
<path d="M2595 349 c-10 -15 3 -25 16 -12 7 7 7 13 1 17 -6 3 -14 1 -17 -5z"/>
<path d="M1225 340 c-3 -5 1 -10 9 -10 9 0 16 5 16 10 0 6 -4 10 -9 10 -6 0
-13 -4 -16 -10z"/>
<path d="M1580 335 c-10 -13 -9 -15 8 -15 15 0 20 5 16 15 -4 8 -7 15 -9 15
-1 0 -8 -7 -15 -15z"/>
<path d="M2191 334 c0 -11 3 -14 6 -6 3 7 2 16 -1 19 -3 4 -6 -2 -5 -13z"/>
<path d="M2299 333 c-13 -16 -12 -17 4 -4 16 13 21 21 13 21 -2 0 -10 -8 -17
-17z"/>
<path d="M2495 330 c-3 -5 3 -10 14 -10 12 0 21 5 21 10 0 6 -6 10 -14 10 -8
0 -18 -4 -21 -10z"/>
<path d="M1655 320 c3 -5 10 -10 16 -10 5 0 9 5 9 10 0 6 -7 10 -16 10 -8 0
-12 -4 -9 -10z"/>
<path d="M1698 323 c7 -3 16 -2 19 1 4 3 -2 6 -13 5 -11 0 -14 -3 -6 -6z"/>
<path d="M1820 323 c-14 -3 -28 -10 -32 -16 -10 -16 2 -37 21 -37 14 0 14 2 1
10 -13 8 -11 11 8 16 12 4 22 11 22 16 0 5 5 6 10 3 6 -3 10 -1 10 4 0 6 -3
10 -7 10 -5 -1 -19 -4 -33 -6z"/>
<path d="M1910 305 c0 -8 2 -15 4 -15 2 0 6 7 10 15 3 8 1 15 -4 15 -6 0 -10
-7 -10 -15z"/>
<path d="M2614 306 c-18 -10 -19 -13 -7 -24 7 -7 17 -11 22 -7 5 3 11 0 13 -6
2 -7 13 -9 26 -5 31 10 28 27 -4 24 -16 -2 -29 3 -32 11 -3 8 0 11 7 7 6 -4
11 -2 11 3 0 13 -9 13 -36 -3z"/>
<path d="M1460 295 c-8 -10 -22 -13 -39 -9 -26 6 -26 6 3 -10 27 -15 30 -15
48 0 10 10 18 21 18 26 0 13 -16 9 -30 -7z"/>
<path d="M2040 300 c0 -5 5 -10 10 -10 6 0 10 5 10 10 0 6 -4 10 -10 10 -5 0
-10 -4 -10 -10z"/>
<path d="M1640 290 c-13 -8 -12 -10 3 -10 22 0 22 -16 1 -24 -9 -4 -15 -9 -12
-11 12 -12 38 9 38 31 0 26 -7 29 -30 14z"/>
<path d="M1680 290 c0 -5 5 -10 10 -10 6 0 10 5 10 10 0 6 -4 10 -10 10 -5 0
-10 -4 -10 -10z"/>
<path d="M1965 290 c-3 -5 -1 -10 4 -10 6 0 11 5 11 10 0 6 -2 10 -4 10 -3 0
-8 -4 -11 -10z"/>
<path d="M2010 290 c0 -5 5 -10 11 -10 5 0 7 5 4 10 -3 6 -8 10 -11 10 -2 0
-4 -4 -4 -10z"/>
<path d="M2370 180 c0 -5 5 -10 10 -10 6 0 10 5 10 10 0 6 -4 10 -10 10 -5 0
-10 -4 -10 -10z"/>
</g>
</svg>
